<svg width="40" height="40" viewBox="0 0 40 40" fill="none" xmlns="http://www.w3.org/2000/svg">
<path d="M13.7556 9.02501C17.8724 8.56491 22.1276 8.56491 26.2443 9.02501C27.7899 9.19776 29.1467 10.0336 30.005 11.2474L19.3333 21.9191L16.0404 18.6262C15.6499 18.2357 15.0168 18.2357 14.6262 18.6262C14.2357 19.0168 14.2357 19.6499 14.6262 20.0405L18.6262 24.0405C19.0168 24.431 19.6499 24.431 20.0404 24.0405L30.861 13.2199C30.891 13.366 30.9149 13.5143 30.9325 13.6646C31.4248 17.8739 31.4248 22.1261 30.9325 26.3354C30.646 28.7846 28.6795 30.7028 26.2443 30.975C22.1276 31.4351 17.8724 31.4351 13.7556 30.975C11.3205 30.7028 9.35394 28.7846 9.06747 26.3354C8.57517 22.1261 8.57517 17.8739 9.06747 13.6646C9.35394 11.2154 11.3205 9.29718 13.7556 9.02501Z" fill="#094B61"/>
</svg>
