<svg width="40" height="40" viewBox="0 0 40 40" fill="none" xmlns="http://www.w3.org/2000/svg">
<path d="M13.9778 11.0126C12.4519 11.1832 11.2305 12.3875 11.0539 13.897C10.5797 17.9518 10.5797 22.0482 11.0539 26.103C11.2305 27.6125 12.4519 28.8168 13.9778 28.9874C17.9469 29.431 22.0531 29.431 26.0222 28.9874C27.5481 28.8168 28.7695 27.6125 28.946 26.103C29.2868 23.1895 29.3827 20.2546 29.2338 17.329C29.2299 17.2534 29.2581 17.1797 29.3116 17.1263L30.6967 15.7412C30.857 15.5809 31.1309 15.6811 31.1479 15.9072C31.4093 19.3804 31.3375 22.8725 30.9325 26.3354C30.646 28.7846 28.6795 30.7028 26.2443 30.975C22.1276 31.4351 17.8724 31.4351 13.7556 30.975C11.3205 30.7028 9.35394 28.7846 9.06747 26.3354C8.57517 22.1261 8.57517 17.8739 9.06747 13.6646C9.35394 11.2154 11.3205 9.29718 13.7556 9.02501C17.8724 8.56491 22.1276 8.56491 26.2443 9.02501C27.102 9.12087 27.9015 9.42091 28.59 9.87642C28.7255 9.96605 28.7389 10.1565 28.624 10.2714L27.5535 11.3419C27.466 11.4294 27.3302 11.4442 27.221 11.3857C26.8565 11.1904 26.4514 11.0606 26.0222 11.0126C22.0531 10.569 17.9469 10.569 13.9778 11.0126Z" fill="#094B61"/>
<path d="M32.0404 12.0405C32.4309 11.6499 32.4309 11.0168 32.0404 10.6262C31.6499 10.2357 31.0167 10.2357 30.6262 10.6262L19.3333 21.9191L16.0404 18.6262C15.6499 18.2357 15.0167 18.2357 14.6262 18.6262C14.2357 19.0168 14.2357 19.6499 14.6262 20.0405L18.6262 24.0405C19.0167 24.431 19.6499 24.431 20.0404 24.0405L32.0404 12.0405Z" fill="#094B61"/>
</svg>
