<svg width="40" height="40" viewBox="0 0 40 40" fill="none" xmlns="http://www.w3.org/2000/svg">
<path fill-rule="evenodd" clip-rule="evenodd" d="M13.3087 22.8427C11.1992 17.665 15.0084 12 20.5993 12H20.9009C25.0822 12 28.4717 15.3896 28.4717 19.5708C28.4717 24.2261 24.6978 28 20.0425 28H12.7039C12.4052 28 12.1391 27.8115 12.0399 27.5298C11.9408 27.248 12.0303 26.9344 12.2632 26.7474L14.1132 25.2617C14.1941 25.1967 14.2227 25.0863 14.1836 24.9902L13.3087 22.8427ZM20.5993 13.4076C16.008 13.4076 12.88 18.0597 14.6123 22.3116L15.4872 24.4591C15.7612 25.1317 15.5609 25.9044 14.9946 26.3592L14.7042 26.5924H20.0425C23.9204 26.5924 27.0641 23.4487 27.0641 19.5708C27.0641 16.167 24.3047 13.4076 20.9009 13.4076H20.5993Z" fill="#094B61"/>
</svg>
