<svg width="40" height="40" viewBox="0 0 40 40" fill="none" xmlns="http://www.w3.org/2000/svg">
<path d="M29.375 17.9167C29.2929 17.9167 29.2116 17.9328 29.1358 17.9642C29.06 17.9956 28.9911 18.0417 28.933 18.0997C28.875 18.1577 28.829 18.2266 28.7976 18.3025C28.7661 18.3783 28.75 18.4596 28.75 18.5417V19.1667H27.0301C26.8779 17.8708 26.3687 16.6427 25.5593 15.6193L26.7764 14.4021L27.2664 14.8169C27.3244 14.875 27.3933 14.9212 27.4691 14.9527C27.545 14.9842 27.6263 15.0004 27.7084 15.0005C27.7906 15.0005 27.8719 14.9844 27.9478 14.953C28.0237 14.9216 28.0926 14.8755 28.1507 14.8174C28.2088 14.7594 28.2548 14.6904 28.2863 14.6145C28.3177 14.5386 28.3338 14.4573 28.3338 14.3752C28.3337 14.293 28.3175 14.2117 28.286 14.1359C28.2545 14.06 28.2084 13.9911 28.1503 13.9331L26.067 11.8498C25.9498 11.7326 25.7908 11.6667 25.6251 11.6667C25.4593 11.6667 25.3003 11.7325 25.1831 11.8497C25.0659 11.9669 25.0001 12.1259 25.0001 12.2916C25.0001 12.4574 25.0659 12.6164 25.1831 12.7336L25.598 13.2235L24.3807 14.4407C23.3573 13.6313 22.1292 13.1221 20.8333 12.97V11.25H21.4583C21.6241 11.25 21.7831 11.1842 21.9003 11.0669C22.0175 10.9497 22.0833 10.7908 22.0833 10.625C22.0833 10.4592 22.0175 10.3003 21.9003 10.1831C21.7831 10.0658 21.6241 10 21.4583 10H18.5417C18.3759 10 18.2169 10.0658 18.0997 10.1831C17.9825 10.3003 17.9167 10.4592 17.9167 10.625C17.9167 10.7908 17.9825 10.9497 18.0997 11.0669C18.2169 11.1842 18.3759 11.25 18.5417 11.25H19.1667V12.97C17.8708 13.1221 16.6427 13.6313 15.6193 14.4407L14.4021 13.2235L14.8169 12.7336C14.8749 12.6755 14.921 12.6066 14.9524 12.5308C14.9838 12.455 14.9999 12.3737 14.9999 12.2916C14.9999 12.2096 14.9838 12.1283 14.9524 12.0525C14.9209 11.9767 14.8749 11.9078 14.8169 11.8497C14.7588 11.7917 14.6899 11.7457 14.6141 11.7143C14.5383 11.6829 14.457 11.6667 14.375 11.6667C14.2092 11.6667 14.0502 11.7326 13.933 11.8498L11.8977 13.9331C11.781 14.0504 11.7156 14.2092 11.7158 14.3747C11.716 14.5402 11.7818 14.6989 11.8989 14.8159C12.0159 14.9329 12.1745 14.9987 12.34 14.9989C12.5055 14.9991 12.6643 14.9336 12.7816 14.8169L13.2236 14.4021L14.4407 15.6193C13.6313 16.6427 13.1221 17.8708 12.9699 19.1667H11.25V18.5417C11.25 18.3759 11.1842 18.2169 11.0669 18.0997C10.9497 17.9825 10.7908 17.9167 10.625 17.9167C10.4592 17.9167 10.3003 17.9825 10.1831 18.0997C10.0658 18.2169 10 18.3759 10 18.5417V21.4583C10 21.6241 10.0658 21.7831 10.1831 21.9003C10.3003 22.0175 10.4592 22.0833 10.625 22.0833C10.7908 22.0833 10.9497 22.0175 11.0669 21.9003C11.1842 21.7831 11.25 21.6241 11.25 21.4583V20.8333H12.9699C13.122 22.1292 13.6313 23.3573 14.4407 24.3807L13.2236 25.5979L12.7336 25.1831C12.6164 25.0661 12.4575 25.0004 12.2919 25.0005C12.1263 25.0006 11.9674 25.0664 11.8503 25.1836C11.7332 25.3007 11.6673 25.4595 11.6672 25.6251C11.6671 25.7907 11.7328 25.9496 11.8498 26.0669L13.933 28.1502C13.9911 28.2083 14.06 28.2543 14.1358 28.2857C14.2116 28.3171 14.2929 28.3333 14.375 28.3333C14.457 28.3333 14.5383 28.3171 14.6141 28.2857C14.6899 28.2543 14.7588 28.2083 14.8169 28.1503C14.8749 28.0922 14.9209 28.0233 14.9524 27.9475C14.9838 27.8717 14.9999 27.7904 14.9999 27.7084C14.9999 27.6263 14.9838 27.545 14.9524 27.4692C14.921 27.3934 14.8749 27.3245 14.8169 27.2664L14.4021 26.7765L15.6193 25.5593C16.6426 26.3687 17.8708 26.8779 19.1667 27.03V28.75H18.5417C18.3759 28.75 18.2169 28.8158 18.0997 28.9331C17.9825 29.0503 17.9167 29.2092 17.9167 29.375C17.9167 29.5408 17.9825 29.6997 18.0997 29.8169C18.2169 29.9342 18.3759 30 18.5417 30H21.4583C21.6241 30 21.7831 29.9342 21.9003 29.8169C22.0175 29.6997 22.0833 29.5408 22.0833 29.375C22.0833 29.2092 22.0175 29.0503 21.9003 28.9331C21.7831 28.8158 21.6241 28.75 21.4583 28.75H20.8333V27.03C22.1292 26.8779 23.3574 26.3687 24.3807 25.5593L25.5979 26.7765L25.1831 27.2664C25.0659 27.3836 25.0001 27.5426 25.0001 27.7084C25.0001 27.8741 25.0659 28.0331 25.1831 28.1503C25.3003 28.2675 25.4593 28.3333 25.625 28.3333C25.7908 28.3333 25.9498 28.2674 26.0669 28.1502L28.1502 26.0669C28.2084 26.0089 28.2545 25.94 28.286 25.8641C28.3175 25.7883 28.3337 25.707 28.3338 25.6248C28.3338 25.5427 28.3177 25.4614 28.2862 25.3855C28.2548 25.3096 28.2088 25.2406 28.1507 25.1826C28.0926 25.1245 28.0237 25.0784 27.9478 25.047C27.8719 25.0156 27.7905 24.9995 27.7084 24.9995C27.6263 24.9996 27.545 25.0158 27.4691 25.0473C27.3933 25.0788 27.3244 25.125 27.2664 25.1831L26.7764 25.5979L25.5593 24.3807C26.3687 23.3573 26.8779 22.1292 27.0301 20.8333H28.75V21.4583C28.75 21.6241 28.8158 21.7831 28.9331 21.9003C29.0503 22.0175 29.2092 22.0833 29.375 22.0833C29.5408 22.0833 29.6997 22.0175 29.8169 21.9003C29.9342 21.7831 30 21.6241 30 21.4583V18.5417C30 18.4596 29.9839 18.3783 29.9524 18.3025C29.921 18.2266 29.875 18.1577 29.817 18.0997C29.7589 18.0417 29.69 17.9956 29.6142 17.9642C29.5384 17.9328 29.4571 17.9167 29.375 17.9167ZM17.7083 18.3333C17.4199 18.3333 17.1379 18.2478 16.8981 18.0876C16.6583 17.9273 16.4714 17.6996 16.361 17.4331C16.2506 17.1666 16.2218 16.8734 16.278 16.5905C16.3343 16.3076 16.4732 16.0478 16.6771 15.8438C16.8811 15.6399 17.1409 15.501 17.4238 15.4447C17.7067 15.3884 17.9999 15.4173 18.2664 15.5277C18.5329 15.6381 18.7606 15.825 18.9209 16.0648C19.0811 16.3046 19.1667 16.5866 19.1667 16.875C19.1667 17.0665 19.129 17.2561 19.0557 17.4331C18.9824 17.61 18.875 17.7708 18.7395 17.9062C18.6041 18.0416 18.4434 18.149 18.2664 18.2223C18.0895 18.2956 17.8998 18.3333 17.7083 18.3333ZM22.5 23.75C22.3352 23.75 22.1741 23.7011 22.037 23.6096C21.9 23.518 21.7932 23.3878 21.7301 23.2356C21.667 23.0833 21.6505 22.9157 21.6827 22.7541C21.7148 22.5924 21.7942 22.444 21.9107 22.3274C22.0273 22.2109 22.1758 22.1315 22.3374 22.0993C22.4991 22.0672 22.6666 22.0837 22.8189 22.1468C22.9712 22.2098 23.1013 22.3166 23.1929 22.4537C23.2845 22.5907 23.3333 22.7518 23.3333 22.9167C23.3333 23.1377 23.2455 23.3496 23.0892 23.5059C22.933 23.6622 22.721 23.75 22.5 23.75Z" fill="#418FDE"/>
</svg>
