<svg width="40" height="40" viewBox="0 0 40 40" fill="none" xmlns="http://www.w3.org/2000/svg">
<path fill-rule="evenodd" clip-rule="evenodd" d="M7.73838 15.1378C7.36486 18.6083 7.38151 22.611 7.90127 26.0674C8.18887 27.9799 9.74976 29.4461 11.6765 29.6136L13.6902 29.7887C17.8889 30.1537 22.1114 30.1537 26.3101 29.7887L28.3237 29.6136C30.2505 29.4461 31.8114 27.9799 32.099 26.0674C32.6188 22.611 32.6354 18.6086 32.2619 15.138C32.2136 14.7357 32.1593 14.3339 32.099 13.9327C31.8114 12.0202 30.2505 10.554 28.3237 10.3865L26.3101 10.2115C22.1114 9.8465 17.8889 9.8465 13.6902 10.2115L11.6765 10.3865C9.74976 10.554 8.18887 12.0202 7.90127 13.9327C7.84096 14.3338 7.78666 14.7355 7.73838 15.1378ZM13.8634 12.204C17.9468 11.849 22.0534 11.849 26.1369 12.204L28.1505 12.379C29.1563 12.4664 29.9711 13.2318 30.1212 14.2301C30.1368 14.3338 30.152 14.4375 30.1667 14.5413L22.7521 18.6606C21.0406 19.6114 18.9596 19.6114 17.2481 18.6606L9.83352 14.5414C9.84827 14.4376 9.86344 14.3338 9.87903 14.2301C10.0292 13.2318 10.844 12.4664 11.8497 12.379L13.8634 12.204ZM30.4115 16.6933C30.6701 19.7169 30.5734 22.7634 30.1212 25.77C29.9711 26.7684 29.1563 27.5337 28.1505 27.6211L26.1369 27.7962C22.0534 28.1511 17.9468 28.1511 13.8634 27.7962L11.8497 27.6211C10.844 27.5337 10.0292 26.7684 9.87903 25.77C9.42692 22.7634 9.33017 19.717 9.58879 16.6933L16.2768 20.4089C18.5923 21.6953 21.4078 21.6953 23.7234 20.4089L30.4115 16.6933Z" fill="#094B61"/>
</svg>
