<svg width="40" height="40" viewBox="0 0 40 40" fill="none" xmlns="http://www.w3.org/2000/svg">
<path d="M13.7188 10.5435C17.8983 10.1802 22.1015 10.1802 26.281 10.5435L28.2947 10.7185C29.6352 10.8351 30.7832 11.6346 31.3781 12.7783C31.4542 12.9246 31.3972 13.1018 31.257 13.1886L22.9023 18.3605C21.1105 19.4697 18.8512 19.493 17.0369 18.4209L8.62644 13.4511C8.49056 13.3708 8.42819 13.2055 8.48943 13.0601C9.03364 11.7673 10.2571 10.8444 11.7052 10.7185L13.7188 10.5435Z" fill="white"/>
<path d="M8.48258 15.6892C8.27463 15.5663 8.00929 15.6985 7.98505 15.9389C7.64674 19.293 7.72862 22.679 8.2307 26.0178C8.49538 27.7779 9.93193 29.1273 11.7052 29.2815L13.7188 29.4565C17.8983 29.8198 22.1015 29.8198 26.281 29.4565L28.2947 29.2815C30.0679 29.1273 31.5045 27.7779 31.7692 26.0178C32.2859 22.5817 32.3575 19.0957 31.9842 15.6457C31.958 15.4037 31.6881 15.2739 31.4811 15.402L23.9551 20.061C21.5308 21.5617 18.474 21.5932 16.0194 20.1428L8.48258 15.6892Z" fill="white"/>
</svg>
