<svg width="40" height="40" viewBox="0 0 40 40" fill="none" xmlns="http://www.w3.org/2000/svg">
<path d="M22.9337 7.83325C21.2982 7.83325 19.7296 8.48295 18.5732 9.63943C17.4167 10.7959 16.767 12.3644 16.767 13.9999V17.4333H13.467C13.3013 17.4333 13.167 17.5676 13.167 17.7333V22.2666C13.167 22.4323 13.3013 22.5666 13.467 22.5666H16.767V31.8666C16.767 32.0323 16.9013 32.1666 17.067 32.1666H21.6003C21.766 32.1666 21.9003 32.0323 21.9003 31.8666V22.5666H25.2296C25.3672 22.5666 25.4872 22.4729 25.5206 22.3393L26.6539 17.806C26.7013 17.6167 26.5581 17.4333 26.3629 17.4333H21.9003V13.9999C21.9003 13.7259 22.0092 13.463 22.203 13.2692C22.3968 13.0755 22.6596 12.9666 22.9337 12.9666H26.4003C26.566 12.9666 26.7003 12.8323 26.7003 12.6666V8.13325C26.7003 7.96757 26.566 7.83325 26.4003 7.83325H22.9337Z" fill="white"/>
</svg>
