<svg width="40" height="40" viewBox="0 0 40 40" fill="none" xmlns="http://www.w3.org/2000/svg">
<path fill-rule="evenodd" clip-rule="evenodd" d="M17.9837 9.05025C19.2965 7.7375 21.077 7 22.9335 7H26.5335C27.0858 7 27.5335 7.44772 27.5335 8V12.8C27.5335 13.3523 27.0858 13.8 26.5335 13.8H22.9335C22.8805 13.8 22.8296 13.8211 22.7921 13.8586C22.7546 13.8961 22.7335 13.947 22.7335 14V16.6H26.5335C26.8414 16.6 27.1322 16.7419 27.3217 16.9846C27.5112 17.2273 27.5783 17.5438 27.5036 17.8425L26.3036 22.6425C26.1923 23.0877 25.7924 23.4 25.3335 23.4H22.7335V32C22.7335 32.5523 22.2858 33 21.7335 33H16.9335C16.3812 33 15.9335 32.5523 15.9335 32V23.4H13.3335C12.7812 23.4 12.3335 22.9523 12.3335 22.4V17.6C12.3335 17.0477 12.7812 16.6 13.3335 16.6H15.9335V14C15.9335 12.1435 16.671 10.363 17.9837 9.05025ZM22.9335 9C21.6074 9 20.3356 9.52678 19.398 10.4645C18.4603 11.4021 17.9335 12.6739 17.9335 14V17.6C17.9335 18.1523 17.4858 18.6 16.9335 18.6H14.3335V21.4H16.9335C17.4858 21.4 17.9335 21.8477 17.9335 22.4V31H20.7335V22.4C20.7335 21.8477 21.1812 21.4 21.7335 21.4H24.5527L25.2527 18.6H21.7335C21.1812 18.6 20.7335 18.1523 20.7335 17.6V14C20.7335 13.4165 20.9653 12.8569 21.3779 12.4444C21.7904 12.0318 22.35 11.8 22.9335 11.8H25.5335V9H22.9335Z" fill="#094B61"/>
</svg>
