<svg width="40" height="40" viewBox="0 0 40 40" fill="none" xmlns="http://www.w3.org/2000/svg">
<path d="M31.7973 17.7613C31.7801 17.6674 31.6978 17.6 31.6023 17.6H20.2C20.0895 17.6 20 17.6895 20 17.8V22.2C20 22.3105 20.0895 22.4 20.2 22.4H26.7818C25.7924 25.1942 23.1338 27.2 20 27.2C16.0238 27.2 12.8 23.9762 12.8 20C12.8 16.0238 16.0238 12.8 20 12.8C21.7676 12.8 23.3816 13.4422 24.634 14.4998C24.715 14.5682 24.8351 14.5649 24.91 14.49L28.0243 11.3757C28.1044 11.2956 28.1022 11.165 28.0181 11.0892C25.8923 9.17442 23.0863 8 20 8C13.373 8 8 13.373 8 20C8 26.627 13.373 32 20 32C26.627 32 32 26.627 32 20C32 19.2519 31.9284 18.4774 31.7973 17.7613Z" fill="white"/>
</svg>
