<svg width="40" height="40" viewBox="0 0 40 40" fill="none" xmlns="http://www.w3.org/2000/svg">
<path fill-rule="evenodd" clip-rule="evenodd" d="M7 20C7 12.8207 12.8207 7 20 7C23.4266 7 26.5338 8.33661 28.8526 10.4976C29.0511 10.6826 29.1659 10.9403 29.1706 11.2116C29.1754 11.4829 29.0698 11.7445 28.8779 11.9363L25.4837 15.3305C25.1092 15.705 24.5077 15.7226 24.112 15.3706C23.0144 14.3942 21.5783 13.8 20 13.8C16.5761 13.8 13.8 16.5761 13.8 20C13.8 23.4239 16.5761 26.2 20 26.2C22.1651 26.2 24.0695 25.087 25.1771 23.4H20C19.4477 23.4 19 22.9523 19 22.4V17.6C19 17.0477 19.4477 16.6 20 16.6H31.7666C32.244 16.6 32.6548 16.9374 32.7475 17.4057C32.9109 18.2303 33 19.1306 33 20C33 27.1793 27.1793 33 20 33C12.8207 33 7 27.1793 7 20ZM20 9C13.9253 9 9 13.9253 9 20C9 26.0747 13.9253 31 20 31C26.0747 31 31 26.0747 31 20C31 19.5366 30.97 19.0614 30.9137 18.6H21V21.4H26.7818C27.1065 21.4 27.411 21.5577 27.5984 21.8228C27.7858 22.088 27.8328 22.4277 27.7245 22.7338C26.5988 25.9128 23.5726 28.2 20 28.2C15.4715 28.2 11.8 24.5285 11.8 20C11.8 15.4715 15.4715 11.8 20 11.8C21.751 11.8 23.3696 12.3536 24.6982 13.2876L26.6972 11.2886C24.8407 9.8555 22.5223 9 20 9Z" fill="#094B61"/>
</svg>
