<svg width="40" height="40" viewBox="0 0 40 40" fill="none" xmlns="http://www.w3.org/2000/svg">
<path d="M20 27.2258C20 26.7982 20.3466 26.4516 20.7742 26.4516H26.9677C27.1103 26.4516 27.2258 26.3361 27.2258 26.1935L27.2258 13.8065C27.2258 13.6639 27.1103 13.5484 26.9677 13.5484L20.7742 13.5484C20.3466 13.5484 20 13.2018 20 12.7742C20 12.3466 20.3466 12 20.7742 12H26.9677C27.9654 12 28.7742 12.8088 28.7742 13.8065V26.1935C28.7742 27.1912 27.9654 28 26.9677 28H20.7742C20.3466 28 20 27.6534 20 27.2258Z" fill="#094B61"/>
<path d="M24.5023 21.1512C24.5023 21.7213 24.0401 22.1835 23.47 22.1835H18.4574C18.4337 22.5503 18.4041 22.9169 18.3685 23.2831L18.3379 23.5982C18.2881 24.1104 17.7442 24.4172 17.28 24.1947C15.3932 23.2905 13.685 22.053 12.2377 20.5419L12.2068 20.5097C11.9311 20.2218 11.9311 19.7678 12.2068 19.4799L12.2377 19.4476C13.685 17.9366 15.3932 16.6991 17.28 15.7948C17.7442 15.5724 18.2881 15.8792 18.3379 16.3914L18.3685 16.7065C18.4041 17.0726 18.4337 17.4393 18.4574 17.8061L23.47 17.8061C24.0401 17.8061 24.5023 18.2683 24.5023 18.8384V21.1512Z" fill="#094B61"/>
</svg>
