<svg width="40" height="40" viewBox="0 0 40 40" fill="none" xmlns="http://www.w3.org/2000/svg">
<path d="M20.0323 26.4516C19.6047 26.4516 19.2581 26.7982 19.2581 27.2258C19.2581 27.6534 19.6047 28 20.0323 28H26.2258C27.2235 28 28.0323 27.1912 28.0323 26.1935V13.8065C28.0323 12.8088 27.2235 12 26.2258 12H20.0323C19.6047 12 19.2581 12.3466 19.2581 12.7742C19.2581 13.2018 19.6047 13.5484 20.0323 13.5484L26.2258 13.5484C26.3683 13.5484 26.4839 13.6639 26.4839 13.8065L26.4839 26.1935C26.4839 26.3361 26.3683 26.4516 26.2258 26.4516H20.0323Z" fill="#094B61"/>
<path fill-rule="evenodd" clip-rule="evenodd" d="M22.6161 22.4415C23.3287 22.4415 23.9064 21.8638 23.9064 21.1512V18.8384C23.9064 18.1258 23.3287 17.5481 22.6161 17.5481L17.8547 17.5481C17.848 17.4723 17.8409 17.3965 17.8335 17.3208L17.7778 16.7469C17.6927 15.8715 16.763 15.3472 15.9698 15.7273C14.2829 16.5358 12.7557 17.6421 11.4618 18.9931L11.3594 19.1C10.8802 19.6003 10.8802 20.3893 11.3594 20.8896L11.4618 20.9965C12.7557 22.3475 14.2829 23.4538 15.9698 24.2623C16.763 24.6424 17.6927 24.1181 17.7778 23.2426L17.8335 22.6688C17.8409 22.5931 17.848 22.5173 17.8547 22.4415H22.6161ZM17.1369 20.8931C16.8619 20.8931 16.6188 21.0369 16.4814 21.2552C16.4144 21.3615 16.3725 21.4855 16.3642 21.6191C16.3455 21.9194 16.3215 22.2194 16.2924 22.519L16.2762 22.6856C15.2068 22.1344 14.2136 21.4481 13.3209 20.644C13.0893 20.4354 12.8645 20.2189 12.6468 19.9948C13.7034 18.9067 14.9293 17.9981 16.2762 17.304L16.2924 17.4705C16.3215 17.7702 16.3455 18.0702 16.3642 18.3705C16.3896 18.7785 16.728 19.0965 17.1369 19.0965H22.358V20.8931H17.1369Z" fill="#094B61"/>
</svg>
