<svg width="40" height="40" viewBox="0 0 40 40" fill="none" xmlns="http://www.w3.org/2000/svg">
<path d="M11.6863 22.3839C11.3209 22.5957 11.1724 23.043 11.3532 23.4507C11.6048 24.0212 12.1833 24.1705 12.6879 23.939C13.1941 23.7083 13.4888 23.1986 13.2441 22.6581C13.0587 22.2472 12.6587 22.0616 12.2117 22.2054L12.321 22.5151C12.5895 22.4235 12.8741 22.5151 12.9964 22.7972C13.1657 23.1868 12.8664 23.4775 12.5271 23.6332C12.1871 23.7889 11.7925 23.7383 11.624 23.3472C11.5086 23.0825 11.6132 22.8675 11.7925 22.7214L11.6863 22.3839ZM10.7531 21.1339C10.8201 21.7234 11.3509 22.0616 11.8963 21.9723C12.4425 21.8846 12.8503 21.4942 12.771 20.9C12.6926 20.309 12.2194 20.0648 11.6732 20.0972C11.1209 20.132 10.6854 20.5389 10.7531 21.1339ZM11.0324 21.0881C10.9855 20.6606 11.3147 20.4686 11.6832 20.4283C12.0563 20.3856 12.4448 20.5215 12.4979 20.9435C12.551 21.3717 12.1963 21.5701 11.8294 21.6278C11.4624 21.6878 11.0793 21.5116 11.0324 21.0881ZM12.6672 19.887L12.6802 19.5709L11.2124 19.435L12.7318 19.0439L12.7595 18.7586L11.3555 17.8997L12.871 18.2008L12.9487 17.891L10.997 17.496L10.9047 17.9622L12.3256 18.8282L12.3248 18.8329L10.7262 19.1964L10.7031 19.7298L12.6672 19.887L12.6672 19.887ZM13.0434 17.6445L13.1595 17.3166L11.3055 16.6078L11.1893 16.9365L13.0434 17.6445ZM11.6948 16.4103L11.9825 15.8477L13.3942 16.7492L13.5534 16.4411L12.1487 15.5411L12.451 14.9753L12.2056 14.8196L11.4217 16.283L11.6948 16.4103ZM13.8996 15.8342L14.7997 14.7438L14.5958 14.5273L13.9104 15.3743L13.4649 14.9706L14.0758 14.2049L13.8834 14.0074L13.248 14.7746L12.8603 14.4135L13.5442 13.6123L13.3349 13.3847L12.4271 14.4901L13.8996 15.8342ZM15.8544 13.8857L16.1421 13.7016L15.102 11.9798L14.8151 12.1639L15.8544 13.8857ZM16.4091 13.5427L16.6929 13.4021L16.1183 12.0541L16.1267 12.0501L17.4369 13.0836L17.7769 12.9801L17.1776 11.0521L16.8553 11.1493L17.2892 12.5858L17.273 12.5866L15.9429 11.5199L15.6151 11.6906L16.4091 13.5427V13.5427ZM17.4776 11.2931L18.0554 11.1943L18.31 12.8387L18.6454 12.7834L18.3908 11.1351L18.9932 11.0252L18.9616 10.7092L17.3961 10.9826L17.4776 11.2931ZM19.3124 12.721L20.7256 12.7739L20.7303 12.4736L19.6563 12.4262L19.6748 11.817L20.651 11.8399L20.6549 11.5562L19.6794 11.5325L19.6878 10.9905L20.7341 11.0434L20.7395 10.7424L19.3547 10.6831L19.3124 12.721H19.3124ZM21.695 11.2117L22.2304 11.3619C22.4004 11.4077 22.5212 11.5325 22.4535 11.7751C22.3966 11.9766 22.275 12.0454 22.0696 11.9869L21.5142 11.8304L21.695 11.2117ZM20.9134 12.8087L21.2234 12.8806L21.4434 12.0841L21.9435 12.2255C22.2435 12.3101 22.2496 12.4894 22.1519 12.8403C22.125 12.9343 22.0965 13.0465 22.1235 13.1445L22.4658 13.2891C22.4158 13.1903 22.4504 12.928 22.512 12.7052C22.5966 12.4025 22.4766 12.269 22.3673 12.22L22.3696 12.2145C22.435 12.2121 22.6904 12.1907 22.792 11.8233C22.8828 11.4994 22.7481 11.2141 22.3396 11.0979L21.4442 10.8427L20.9134 12.8087L20.9134 12.8087ZM22.6027 13.3507L22.9012 13.4945L23.5667 12.2073L23.5744 12.2121L23.6798 13.9789L23.9598 14.1915L25.0184 12.4871L24.7476 12.269L23.9613 13.5301L23.8606 11.7269L23.5305 11.5602L22.6027 13.3507L22.6027 13.3507ZM25.8461 13.6676L25.8508 13.6715L25.8523 13.6723L25.4576 14.536L25.0445 14.0943L25.8461 13.6676L25.8461 13.6676ZM24.0383 14.2523L24.3121 14.4878L24.8022 14.2239L25.3469 14.792L25.1091 15.3443L25.3345 15.6312L26.2116 13.5546L25.9477 13.2946L24.0383 14.2523ZM26.4824 14.3455L26.8024 14.8244L25.4253 15.7718L25.6092 16.0634L26.9878 15.1168L27.3363 15.6391L27.5886 15.4905L26.7147 14.1599L26.4824 14.3455ZM25.9585 16.6631L26.1015 16.9784L27.891 16.11L27.7471 15.7955L25.9585 16.6631ZM28.401 17.4849C28.2441 16.9152 27.7025 16.6781 27.1732 16.8599C26.6493 17.0408 26.2946 17.5149 26.4477 18.0886C26.597 18.6496 27.1255 18.844 27.6586 18.6962C28.1987 18.5461 28.5579 18.0522 28.401 17.4849ZM28.1341 17.5742C28.2448 17.9756 27.9263 18.2814 27.5663 18.3762C27.207 18.4718 26.8178 18.4094 26.7116 18.0064C26.6039 17.5939 26.9178 17.3039 27.2732 17.1925C27.6278 17.0811 28.021 17.1641 28.1341 17.5742ZM26.6801 19.1387L26.6978 19.4698L28.1333 19.3892V19.3979L26.6993 20.3714L26.6816 20.7404L28.6349 20.9095L28.6687 20.5334L27.2024 20.433V20.4117L28.6841 19.4279L28.6587 19.0352L26.6801 19.1387ZM28.0417 22.2749L28.041 22.2796L28.0394 22.2836L27.1132 22.3057L27.2817 21.7218L28.0417 22.2749L28.0417 22.2749ZM26.657 20.9L26.6062 21.2572L27.0601 21.559L26.8401 22.3215L26.3039 22.3563L26.1816 22.7024L28.3102 22.5538L28.4102 22.199L26.657 20.9ZM26.1177 22.862L25.4761 24.0504L25.733 24.1966L26.21 23.3124L27.6871 24.1579L27.8509 23.8545L26.1177 22.862Z" fill="#231F20"/>
<path d="M24.1078 28L25.2563 27.1924L25.0925 26.9388L24.2239 27.5591L23.8978 27.0636L24.6863 26.4907L24.5301 26.2529L23.7416 26.825L23.45 26.3604L24.3093 25.7511L24.1439 25.4983L23.0054 26.2964L24.1078 28Z" fill="#231F20"/>
<path d="M22.6317 28.6838L22.984 28.5526L22.8671 26.3662L22.5578 26.5084L22.6709 28.2239L22.6655 28.2271L21.6362 26.8537L21.3062 26.9541L22.6317 28.6838V28.6838Z" fill="#231F20"/>
<path d="M20.1212 29.1617L21.5036 28.991L21.4436 28.7002L20.4081 28.8211L20.3358 28.2103L21.2428 28.0989L21.1882 27.8192L20.2912 27.9298L20.2297 27.3799L21.2321 27.2748L21.1782 26.9761L19.895 27.1349L20.1212 29.1617Z" fill="#231F20"/>
<path d="M15.8643 28.2864L17.1744 28.7882L17.2498 28.499L16.2797 28.126L16.4759 27.5523L17.349 27.8968L17.419 27.6242L16.5659 27.286L16.7436 26.7574L17.6775 27.1454L17.7529 26.8609L16.5382 26.3687L15.8643 28.2864Z" fill="#231F20"/>
<path d="M15.8919 27.1083L15.2019 26.6595L15.0572 26.8752L15.5057 27.1692C15.3165 27.441 15.0188 27.5066 14.731 27.2988C14.3895 27.0499 14.4541 26.6287 14.6626 26.3166C14.8695 26.0053 15.2111 25.8156 15.555 26.0606C15.7573 26.2044 15.8696 26.447 15.7534 26.6793L16.0427 26.8484C16.2435 26.4517 16.0612 26.0787 15.7096 25.829C15.228 25.4829 14.6895 25.6513 14.381 26.1151C14.0725 26.5805 14.0964 27.1866 14.5764 27.5303C14.7734 27.6709 14.9549 27.6978 15.2211 27.633L15.1749 27.9175L15.3557 28.0265L15.8919 27.1083Z" fill="#231F20"/>
<path d="M17.7222 28.9389L18.0476 29.0093L18.3045 27.5285L18.313 27.5301L19.0915 29.1428L19.4554 29.1626L19.5477 27.1326L19.2431 27.1239L19.1823 28.6134L19.1769 28.6118L18.4022 27.0109L18.0584 26.9382L17.7222 28.9389L17.7222 28.9389Z" fill="#231F20"/>
<path d="M18.3147 18.5031V15.0935H21.078V18.5031H24.3968V21.343H21.078V24.751H18.3147V21.343H14.9951V18.5031H18.3147Z" fill="#ED1C24"/>
</svg>
