<svg width="40" height="40" viewBox="0 0 40 40" fill="none" xmlns="http://www.w3.org/2000/svg">
<path d="M27 7.55553C27 7.20977 26.7228 6.90438 26.3999 7.02802C26.1317 7.1307 25.8917 7.32251 25.7287 7.60346L22.1099 13.8399C21.8561 14.2773 21.4174 14.5758 20.9173 14.6514L14.1355 15.6757C12.9965 15.8477 12.5969 17.2858 13.484 18.0208L18.5361 22.2064C19.0038 22.5939 19.2237 23.205 19.1101 23.8016L17.7885 30.7418C17.5796 31.8389 18.7313 32.6913 19.7195 32.171L26.1054 28.8085C26.1679 28.7756 26.2319 28.747 26.2971 28.7225C26.6593 28.5868 27 28.2919 27 27.9051V7.55553Z" fill="#094B61"/>
</svg>
