<svg width="40" height="40" viewBox="0 0 40 40" fill="none" xmlns="http://www.w3.org/2000/svg">
<path fill-rule="evenodd" clip-rule="evenodd" d="M17.5065 9.16227C18.4057 7.61258 20.6436 7.61258 21.5429 9.16227L24.2967 13.9081C24.5505 14.3455 24.9892 14.644 25.4893 14.7196L30.0622 15.4103C32.0555 15.7113 32.7547 18.2281 31.2023 19.5142L27.8705 22.2746C27.4028 22.6621 27.1829 23.2732 27.2965 23.8698L28.2298 28.7711C28.5954 30.6911 26.5799 32.1828 24.8506 31.2722L20.3012 28.8768C19.8151 28.6208 19.2342 28.6208 18.7482 28.8768L14.1988 31.2722C12.4694 32.1828 10.4539 30.691 10.8195 28.7711L11.7528 23.8698C11.8664 23.2732 11.6466 22.6621 11.1789 22.2746L7.84703 19.5142C6.29465 18.2281 6.99386 15.7113 8.98718 15.4103L13.56 14.7196C14.0601 14.644 14.4989 14.3455 14.7527 13.9081L17.5065 9.16227ZM19.813 10.166C19.6845 9.94465 19.3648 9.94466 19.2364 10.166L16.4826 14.9119C15.9241 15.8742 14.9589 16.531 13.8587 16.6971L9.28587 17.3878C9.00111 17.4308 8.90123 17.7904 9.12299 17.9741L12.4549 20.7345C13.4837 21.5869 13.9675 22.9314 13.7175 24.2439L12.7842 29.1452C12.732 29.4195 13.0199 29.6326 13.267 29.5025L17.8164 27.1071C18.8857 26.5441 20.1637 26.5441 21.233 27.1071L25.7824 29.5025C26.0294 29.6326 26.3173 29.4195 26.2651 29.1452L25.3318 24.2439C25.0819 22.9314 25.5656 21.5869 26.5945 20.7345L29.9264 17.9741C30.1481 17.7904 30.0482 17.4308 29.7635 17.3878L25.1906 16.6971C24.0904 16.531 23.1252 15.8742 22.5668 14.9119L19.813 10.166Z" fill="#F99746"/>
</svg>
