<svg width="40" height="38" viewBox="0 0 40 38" fill="none" xmlns="http://www.w3.org/2000/svg">
<path d="M21.0352 6.66415C20.5213 5.77862 19.2425 5.77861 18.7287 6.66415L15.1099 12.9006C14.8561 13.338 14.4174 13.6365 13.9173 13.7121L7.13553 14.7364C5.99649 14.9084 5.59694 16.3465 6.48402 17.0815L11.5361 21.2671C12.0038 21.6546 12.2237 22.2657 12.1101 22.8623L10.7885 29.8025C10.5796 30.8996 11.7313 31.752 12.7195 31.2317L19.1054 27.8692C19.5914 27.6133 20.1724 27.6133 20.6584 27.8692L27.0443 31.2317C28.0325 31.752 29.1842 30.8996 28.9753 29.8025L27.6537 22.8623C27.5401 22.2657 27.76 21.6546 28.2277 21.2671L33.2798 17.0815C34.1669 16.3466 33.7673 14.9084 32.6283 14.7364L25.8465 13.7121C25.3465 13.6365 24.9077 13.338 24.6539 12.9006L21.0352 6.66415Z" fill="#F99746"/>
</svg>
