<svg width="40" height="40" viewBox="0 0 40 40" fill="none" xmlns="http://www.w3.org/2000/svg">
<path fill-rule="evenodd" clip-rule="evenodd" d="M23.4165 8.83301C24.2713 7.3598 26.5247 7.96625 26.5247 9.66949V25.2437C26.5247 26.6048 25.7707 27.8539 24.5663 28.4881L20.1988 30.7878C18.4694 31.6983 16.4539 30.2066 16.8195 28.2867L17.7528 23.3854C17.8665 22.7888 17.6466 22.1776 17.1789 21.7902L13.847 19.0298C12.2947 17.7436 12.9939 15.2269 14.9872 14.9258L19.56 14.2351C20.0601 14.1596 20.4989 13.8611 20.7527 13.4236L23.4165 8.83301ZM24.5247 10.9081L22.4826 14.4274C21.9241 15.3898 20.9589 16.0465 19.8587 16.2127L15.2859 16.9034C15.0011 16.9464 14.9012 17.3059 15.123 17.4897L18.4549 20.2501C19.4837 21.1025 19.9675 22.447 19.7175 23.7595L18.7842 28.6608C18.732 28.9351 19.0199 29.1482 19.267 29.0181L23.6345 26.7184C24.182 26.4302 24.5247 25.8624 24.5247 25.2437V10.9081Z" fill="#094B61"/>
</svg>
