<svg width="40" height="40" viewBox="0 0 40 40" fill="none" xmlns="http://www.w3.org/2000/svg">
<path d="M25.8756 14.3C26.2488 14.77 26.8995 15.0399 27.2823 15.5099C27.0048 14.13 25.9904 13 24.7847 12.73C25.378 13.19 25.5024 13.83 25.8756 14.3ZM11.4067 17.7999C12.2392 15.9099 13.4737 16.3099 14 14.52C13.6938 15.06 12.3445 15.2899 11.7225 16.6999C12.0478 15.8599 11.8852 14.58 12.4211 13.88C10.8038 15.14 11.4928 17.1599 11.4067 17.7999ZM12.8995 22.3199C13.0526 23.0499 12.6124 24.1199 13.311 25.1299C12.5933 24.2899 11.0622 24.0699 10.4402 22.7899C11.2153 25.9199 13.244 25.2799 14.1531 25.9599C13.4067 24.8299 14.0191 24.0799 12.8995 22.3199ZM12.6699 24.2899C12.2201 22.5399 13.0144 21.9299 12.4115 20.2499C12.3541 21.1999 11.7416 21.6599 12.1531 23.3899C11.4354 21.9199 10.3254 21.3699 10 20.3699C10.0191 23.1199 12.134 23.5299 12.6699 24.2899ZM15.9139 27.2199C15.2919 26.3199 15.7129 25.8099 13.9713 24.1799C14.3445 24.7799 13.9617 25.5299 15.1388 26.6899C13.9904 25.9799 12.3923 26.2799 11.6268 25.3299C12.9474 27.9699 15.2632 26.8899 15.9139 27.2199ZM24.3828 26.6899C25.5598 25.5199 25.177 24.7699 25.5502 24.1799C23.799 25.8099 24.2297 26.3199 23.5981 27.2199C24.2584 26.8899 26.5742 27.9699 27.8852 25.3299C27.1292 26.2899 25.5311 25.9799 24.3828 26.6899ZM26.2105 25.1299C26.9091 24.1199 26.4689 23.0599 26.6124 22.3199C25.4928 24.0799 26.1053 24.8299 25.3589 25.9599C26.2775 25.2799 28.2966 25.9199 29.0718 22.7899C28.4498 24.0699 26.9282 24.2899 26.2105 25.1299ZM23.4163 27.3499C22.7943 27.1799 22.1531 27.0699 21.5024 27.0499C20.9091 27.0399 20.3158 27.1399 19.7608 27.3599C19.2057 27.1399 18.6124 27.0399 18.0191 27.0499C17.3684 27.0699 16.7273 27.1799 16.1053 27.3499C15.0526 27.6399 14.1435 27.8699 13.3493 27.4499C14.1053 28.1499 14.9952 28.4099 16.2775 28.2599C17.3397 28.1399 18.201 27.5799 19.2057 27.5899H19.244C18.6124 27.9199 18.0478 28.3799 17.5885 28.9399L18.0766 29.0099C18.0766 29.0099 18.5837 27.9399 19.7608 27.6599C20.9378 27.9399 21.445 29.0099 21.445 29.0099L21.933 28.9399C21.4737 28.3799 20.9091 27.9199 20.2775 27.5899H20.3158C21.3206 27.5799 22.1818 28.1399 23.244 28.2599C24.5263 28.3999 25.4067 28.1499 26.1722 27.4499C25.378 27.8699 24.4689 27.6399 23.4163 27.3499ZM12.488 18.3499C12.0574 19.2199 11.378 19.4199 11.4545 21.2099C11.0909 19.6199 10.2201 19.0199 10.2297 18.0099C9.62679 20.6699 11.2344 20.9799 11.6555 22.0999C11.5885 20.4999 12.5646 20.1799 12.488 18.3499ZM13.0909 16.2999C12.9378 16.5199 12.8325 16.6199 12.4306 16.9599C11.8278 17.4599 11.4067 18.1699 11.2632 18.9599C11.3014 17.9799 10.7273 16.5799 11.11 15.5599C9.62679 17.7499 11.1962 19.0599 11.2536 19.8599C11.6268 18.3299 12.5167 18.3199 13.0909 16.2999ZM28.2584 18.9599C28.1053 18.1699 27.6938 17.4599 27.0909 16.9599C26.689 16.6099 26.5837 16.5199 26.4306 16.2999C27.0048 18.3199 27.8947 18.3299 28.2775 19.8599C28.3349 19.0699 29.9043 17.7599 28.4211 15.5599C28.8038 16.5799 28.2297 17.9799 28.2584 18.9599ZM29.5215 20.3699C29.1962 21.3799 28.0861 21.9199 27.3684 23.3899C27.7799 21.6599 27.1675 21.1999 27.11 20.2499C26.5072 21.9299 27.3014 22.5399 26.8517 24.2899C27.3876 23.5299 29.5024 23.1199 29.5215 20.3699ZM27.0335 18.3499C26.9474 20.1799 27.933 20.4999 27.866 22.0999C28.2775 20.9899 29.8947 20.6699 29.2919 18.0099C29.3014 19.0299 28.4306 19.6199 28.067 21.2199C28.1435 19.4099 27.4737 19.2199 27.0335 18.3499ZM13.6459 14.3C14.0191 13.83 14.1435 13.19 14.7368 12.73C13.5215 13 12.5072 14.12 12.2297 15.4999C12.6124 15.03 13.2727 14.76 13.6459 14.3ZM25.5311 14.5C26.0574 16.2999 27.2919 15.9 28.1244 17.7799C28.0383 17.1499 28.7273 15.1199 27.11 13.88C27.6555 14.57 27.4928 15.8599 27.8086 16.6999C27.177 15.2899 25.8278 15.06 25.5311 14.5ZM21.3206 15.5299C21.0048 15.3899 20.6699 15.2999 20.3349 15.2499C20.3349 15.3299 20.3349 15.3999 20.3349 15.4799C20.6507 15.5299 20.9569 15.62 21.244 15.7399C21.2823 15.67 21.311 15.5999 21.3206 15.5299ZM21.0718 13.3L21.1388 13.24L21.0144 13.18L20.6794 13.17L20.5933 13.23L20.4019 13.21V13.26C20.5263 13.27 20.6507 13.28 20.7464 13.3L20.9091 13.29L21.0718 13.3ZM20.4402 20.7599C20.4402 20.6999 20.3636 20.6399 20.2584 20.5899H20.2392C20.2392 20.6399 20.2297 20.8699 20.2297 20.9899C20.3541 20.9199 20.4402 20.8599 20.4402 20.7599ZM16.6029 16.3699C16.6124 16.3299 16.622 16.2799 16.6316 16.2399C16.5837 16.2499 16.5455 16.2599 16.4976 16.2499L16.6029 16.3699ZM15.0622 14.7599L15.8469 15.5799C14.8995 16.6099 14.3636 17.9899 14.3445 19.4199H13.2344C13.2536 17.6699 13.9043 16.0099 15.0622 14.7599ZM14.5837 21.1399L14.5167 21.1299L14.4498 21.0599L14.134 21.0299L14.2297 21.1699L13.9426 21.1099L14.0191 21.0399L13.9522 20.9699L13.7416 21.0599L13.6651 21.1999L13.6938 21.5299L13.933 22.1299L14.0478 22.3199L14.1148 22.3399L13.933 21.9799L13.8947 21.7999L13.933 21.7599L13.9043 21.6599L14.0096 21.6799L14.1818 21.9399L14.2201 21.9599V21.7699L14.2871 21.8099L14.3062 21.9099L14.4785 21.9599L14.555 21.8999L14.5837 21.9199V22.0599L14.6603 22.1599L14.756 22.1799L14.9665 22.5399L15.0909 22.5799L15.1292 22.4099C15.3493 22.7799 15.5981 23.1299 15.8947 23.4399L15.11 24.2599C13.9426 23.0299 13.2727 21.3799 13.2344 19.6499H14.3445C14.3541 20.1499 14.4402 20.6599 14.5837 21.1399ZM15.6746 19.6399C15.6746 19.7499 15.6842 19.8599 15.7033 19.9799L15.5694 20.0099L15.5407 20.1499L15.2536 20.5299L15.2632 21.0499L14.9761 21.1499H14.8134C14.6603 20.6599 14.5837 20.1599 14.5646 19.6399H15.6746ZM15.9234 22.9099L16.1722 23.0599L16.2201 23.0999L16.0383 23.2899C15.9522 23.1999 15.8756 23.1099 15.799 23.0099L15.9234 22.9099ZM16.9378 16.7199L17.7225 17.5399C17.5598 17.7299 17.4163 17.9399 17.311 18.1699H17.2536L17.1388 18.1999H17.1005L16.9856 18.3099L17.1388 18.2899L17.2727 18.2599L17.244 18.2999L17.1292 18.3799H17.0718L16.8995 18.5199L16.7368 18.4999L16.4976 18.9699L16.5455 19.0599L16.4115 19.2199L16.3923 19.4199H15.8947C15.9043 18.4099 16.2775 17.4499 16.9378 16.7199ZM17.7416 20.1099L17.799 20.0799L17.9426 20.1899L17.8756 20.2399L18.0383 20.3499L18.0287 20.2299L18.1148 20.0799L18.2105 20.1799L18.3062 20.3199L18.134 20.3699L18.2105 20.5299L18.3254 20.4599L18.3062 20.4099L18.3923 20.3499L18.4402 20.0999C18.5072 20.2499 18.5933 20.3899 18.6986 20.5099L17.9139 21.3299C17.5311 20.9099 17.2919 20.3699 17.2249 19.7899L17.3876 19.9699H17.5407L17.7416 20.1099ZM16.6124 19.2399L16.6316 19.0099L16.7655 18.9299L17.0048 18.9699L17.0431 19.0099C17.0239 19.1399 17.0144 19.2799 17.0048 19.4099H16.7368L16.6124 19.2399ZM16.2488 20.0399L16.1435 20.2099H15.9617L15.9522 20.1999C15.9234 20.0199 15.9043 19.8299 15.8947 19.6499H16.2297L16.1531 19.9299L16.2488 20.0399ZM16.9856 22.2999C16.9091 22.2099 16.823 22.1199 16.756 22.0299L16.7943 21.7399L16.6794 21.4599L16.6507 21.0199L16.5167 20.7499L16.5455 20.5799L16.3828 20.2599L16.2488 20.1899L16.3062 20.0199L16.2488 19.8899L16.3062 19.7399H16.4593L16.5167 19.6499H16.7751L16.8134 19.7299L16.756 19.9999L16.7273 20.0499L16.823 20.2699L16.756 20.3099L16.7081 20.2499L16.689 20.2699L16.7368 20.3999L16.8134 20.5499H16.8517L16.8708 20.4099L16.8325 20.3599V20.2699L16.823 20.0799L16.8804 19.7399L16.823 19.6499H17.0048C17.0431 20.3399 17.311 20.9899 17.7703 21.4899L16.9856 22.2999ZM23.6651 23.4199C24.6124 22.3999 25.1579 21.0499 25.1866 19.6399H26.2966C26.2584 21.3599 25.5981 23.0099 24.4402 24.2399L23.6651 23.4199ZM23.3589 23.0999L23.445 22.9999L23.3589 22.5499L23.3014 22.5299L23.3397 22.4499L23.1579 22.3899L23.1196 22.5499L23.1005 22.7499L23.0622 22.7899L22.7273 22.4399C23.4258 21.6799 23.8278 20.6899 23.866 19.6399H24.9761C24.9378 20.9999 24.4211 22.2899 23.512 23.2599L23.3589 23.0999ZM22.3828 24.1899L22.488 23.9599L22.4498 23.8599L22.6029 23.7199V23.6399L22.4689 23.5499L22.5742 23.3199L22.7368 23.0999L22.5742 22.9199H22.4498L22.3732 22.7899C22.4402 22.7299 22.5072 22.6699 22.5646 22.6099L23.3493 23.4299C23.0622 23.7199 22.7368 23.9799 22.3828 24.1899ZM22.2297 21.9299L22.1244 21.8199L22.201 21.7099L22.3062 21.4899L22.2679 21.4299L22.3349 21.2699L22.3254 21.1199L22.2871 20.9699L22.1914 20.9399L22.1531 21.0199L22.0957 20.9999C22.1818 20.8699 22.2584 20.7199 22.3254 20.5799L22.4211 20.5399L22.4785 20.4599L22.5072 20.4899L22.5742 20.4099L22.5167 20.3399L22.5646 20.3299L22.6507 20.3699H22.823L22.9282 20.3099L23.1962 20.2299L23.1483 20.1399L23.1292 20.0299L23.2727 20.0999L23.3301 20.0699L23.3014 19.9499L23.1196 20.0199L22.9282 19.9799L22.7751 19.6599H23.6268C23.5885 20.6499 23.2057 21.5899 22.555 22.2999L22.4402 22.1799L22.488 22.0199L22.4019 21.6599L22.2297 21.9299ZM21.8278 17.5699L22.6124 16.7499C22.7943 16.9599 22.9569 17.1899 23.1005 17.4299L23.0048 17.4599L23.0144 17.6399L23.3014 17.8299C23.378 17.9999 23.4354 18.1699 23.4833 18.3499L23.4354 18.4299L23.3301 18.5099L23.3014 18.6799L23.2249 18.7199L23.1675 18.7999L23.11 18.7699H23.0048L23.0622 18.6799L23.11 18.4499L23.1866 18.3999L22.9761 18.1899L22.823 18.2499L22.7847 18.4099L22.689 18.5199L22.5837 18.4299L22.5455 18.3299L22.6029 18.2899L22.6316 18.3499L22.6794 18.3299L22.6603 18.2299H22.5933V18.2699L22.5455 18.2799L22.3062 17.9799L22.2201 17.9099L22.2488 17.8799L22.3254 17.8499L22.2488 17.8199C22.2488 17.8199 22.1627 17.8399 22.1531 17.8399L22.201 17.9099H22.0766C22 17.7799 21.9234 17.6699 21.8278 17.5699ZM21.9522 22.0399L21.7129 21.9699L21.6364 21.9999L21.5024 21.8899L21.378 21.8399C21.445 21.7899 21.5024 21.7399 21.5598 21.6899L21.7608 21.8399L21.9139 21.9199L21.9904 21.9999L21.9522 22.0399ZM21.5311 18.1899L21.6268 18.1699V18.1499L21.5311 18.0799L21.5598 17.8599L21.6746 17.7299C21.7512 17.8199 21.8182 17.9099 21.8852 18.0099L21.8469 18.1399L21.7416 18.0599L21.6555 18.0799L21.6938 18.1599H21.7321L21.6842 18.2799L21.6555 18.2299L21.5311 18.1899ZM22.8612 18.9899L23.0622 18.8799L23.2632 18.8499L23.311 18.7499L23.4258 18.6799L23.4737 18.5799L23.512 18.4099C23.5311 18.4699 23.5407 18.5299 23.5598 18.5899L23.4545 18.9199V19.0299L23.5885 18.7999C23.6172 18.9999 23.6364 19.2099 23.6459 19.4099H22.6699L22.6507 19.3199L22.7655 19.2299L22.7847 19.1699L22.8325 19.1299L22.9665 19.1099L22.9761 19.0499L22.8612 18.9899ZM23.0813 16.2699L23.3493 16.2799L23.4163 16.3599L23.3876 16.4799L23.7608 16.7199L23.8373 16.7099L24.3062 17.2799L24.4976 17.2099C24.8038 17.8999 24.9665 18.6599 24.9761 19.4199H23.866C23.866 19.1199 23.8278 18.8299 23.7608 18.5399L23.8086 18.4699L23.8756 18.0999L23.8278 17.7099L23.6938 17.2599L23.3876 16.7899L23.4641 16.8299L23.5024 16.7899L23.2536 16.6099L23.2344 16.6699L23.4833 17.0399L23.6268 17.3399L23.7225 17.6399L23.7512 17.8399L23.799 18.1799L23.7033 18.1899C23.7033 18.1899 23.5981 17.9799 23.5598 17.8899L23.6077 17.8099L23.512 17.6699V17.5399L23.445 17.4499L23.3589 17.4599C23.3301 17.3999 23.3014 17.3399 23.2632 17.2899L23.3206 17.3199L23.3397 17.2999L23.311 17.2299L23.3876 17.1899L23.3589 17.1499L23.2536 17.1899L23.2919 17.0099L23.2249 16.9699L23.1675 17.1099C23.0431 16.9199 22.9091 16.7399 22.7655 16.5699L23.0813 16.2699ZM24.4976 14.78C25.6459 16.0299 26.2871 17.6899 26.3062 19.4199H25.1962C25.1866 18.5599 24.9952 17.7099 24.622 16.9399L24.6316 16.9199L24.7081 16.9599L24.7273 16.8999L24.5263 16.5399L24.2871 16.1999L24.0096 15.9599C23.9139 15.8399 23.8182 15.7199 23.7129 15.5999L24.4976 14.78ZM19.7703 26.5399C23.5024 26.5399 26.5263 23.3699 26.5167 19.4699C26.5167 15.8499 23.8947 12.82 20.4498 12.45L20.4402 12.49C20.4306 12.56 20.4115 12.62 20.4019 12.68C21.8852 12.83 23.2727 13.51 24.3349 14.6L23.5885 15.3799L23.6172 15.24L23.5215 15.19L23.3971 15.1999L23.4258 15.1099L23.3397 14.79L23.1579 14.58L22.5742 14.26L22.5263 14.32L22.4211 14.35C22.622 14.65 22.7273 15.01 22.7273 15.37C22.7273 15.42 22.7273 15.4599 22.7273 15.5099L23.0144 15.8899L22.8804 15.9199L22.9665 16.0599L22.7081 16.3299L22.6029 16.1299C22.555 16.2699 22.488 16.4099 22.4115 16.5299L22.4689 16.5799L21.6746 17.3999C21.6268 17.3499 21.5789 17.3099 21.5311 17.2599C21.4545 17.2999 21.378 17.3299 21.3014 17.3599L21.3684 17.4099L21.3301 17.4499L21.2344 17.4999L21.1962 17.5999L21.1388 17.5399L20.9761 17.5999L21.0239 17.6799L21.1388 17.6499L21.2153 17.6599L21.2249 17.6199L21.2823 17.5899L21.3014 17.5599L21.4067 17.5299H21.4833L21.5311 17.5699L21.2249 17.8999L21.2057 17.8699L20.8804 17.9299L20.8038 18.0099L20.7368 18.0199L20.9378 17.8199L20.8612 17.7799L20.6699 18.0399L20.7273 18.0299V18.1299L20.7943 18.1599L20.8038 18.2599L20.689 18.2399L20.5742 18.2599L20.2871 18.1099C20.2871 18.1099 20.2679 18.9099 20.2679 19.3099C20.9378 19.5499 21.6555 19.8899 21.6555 20.7899C21.6651 21.1699 21.4737 21.5299 21.1675 21.7399L21.1483 21.7499L21.1292 21.7699C20.8612 21.9599 20.5072 22.0599 20.201 22.1599L20.1914 22.7899C20.6794 23.0399 21.2632 23.4099 21.2057 24.4499C21.1962 24.7099 21.1005 24.7799 21.0239 24.7999C20.7368 24.8699 20.4402 24.9199 20.1531 24.9399C20.1531 25.0199 20.1531 25.0999 20.1531 25.1699C21.4163 25.0799 22.6029 24.5299 23.5215 23.6199L24.3062 24.4399C21.7895 26.9799 17.799 26.9799 15.2727 24.4599L16.0574 23.6399C16.9665 24.5299 18.1435 25.0699 19.3876 25.1699C19.3876 25.0999 19.3876 25.0199 19.3876 24.9399C18.201 24.8399 17.0909 24.3299 16.2297 23.4699L16.4306 23.2499L16.7177 23.2799L16.8708 23.1099L17.2727 23.1299L17.3301 22.9799L17.311 22.9199C17.9043 23.3899 18.6124 23.6899 19.3589 23.7699C19.3589 23.6799 19.3589 23.5999 19.3589 23.5399C18.5359 23.4399 17.7703 23.0799 17.1579 22.4899L17.9426 21.6699C18.134 21.8499 18.3445 21.9999 18.5837 22.1199C18.6029 22.0399 18.622 21.9699 18.6603 21.8999C18.4593 21.7899 18.2679 21.6599 18.1053 21.5099L18.89 20.6899C19.0144 20.7899 19.1579 20.8799 19.3014 20.9299C19.3014 20.8499 19.3014 20.7599 19.3014 20.6799C19.2057 20.6399 19.1196 20.5799 19.0431 20.5199L19.2632 20.2899C19.1866 20.2699 19.11 20.2399 19.0335 20.2099L18.8804 20.3699C18.8038 20.2799 18.7368 20.1799 18.689 20.0799C18.555 20.0199 18.4211 19.9499 18.2966 19.8599C17.8373 19.5699 17.5598 19.0399 17.5694 18.4699C17.5598 18.0899 17.6651 17.7099 17.8852 17.4099L17.1005 16.5899C17.6746 16.0099 18.4115 15.6399 19.1962 15.5099C19.1962 15.4299 19.1962 15.3499 19.1962 15.2799C18.3541 15.4099 17.5598 15.8099 16.9474 16.4299L16.8134 16.2899C16.7847 16.3399 16.7464 16.4099 16.7081 16.4999L16.7943 16.5899C16.0957 17.3599 15.7033 18.3799 15.6842 19.4399H14.5646C14.5837 18.0699 15.0909 16.7599 16 15.7599L16.3541 16.1299C16.3732 16.1299 16.3828 16.1299 16.4019 16.1299C16.4689 16.1199 16.5455 16.0999 16.6029 16.0699L16.1531 15.5999C16.3923 15.3599 16.6507 15.14 16.9282 14.9499C16.9474 14.89 16.9569 14.83 16.9856 14.78C17.0335 14.7 17.0909 14.62 17.1579 14.54C16.7368 14.78 16.3541 15.0799 16.0096 15.4299L15.2249 14.61C16.2775 13.54 17.6459 12.87 19.1196 12.71C19.1196 12.68 19.11 12.66 19.11 12.66C19.1005 12.6 19.0909 12.55 19.0813 12.48C15.3589 12.88 12.6699 16.3499 13.0622 20.2299C13.4258 23.8199 16.3158 26.5499 19.7703 26.5399ZM23.0909 14.33L23.0239 14.22L22.8804 14.14L22.7655 14.23L22.9091 14.31L23.0718 14.43L23.0909 14.33ZM22.4211 17.6099L22.4306 17.6999L22.622 17.6399L22.6794 17.5199L22.5455 17.3399L22.6124 17.2299L22.7943 17.3599L22.823 17.3299L22.7847 17.2999L22.7464 17.2199L22.823 17.1799L22.7464 17.0799L22.5742 17.1699L22.5167 17.2799L22.4785 17.3799L22.555 17.5099L22.5263 17.5699L22.4211 17.6099ZM14.4019 22.8099L14.4115 22.7599L14.3158 22.5299L14.201 22.4799L14.4019 22.8099ZM18.9282 18.4499C18.9282 18.6499 19.0431 18.7799 19.244 18.8999C19.244 18.8999 19.244 18.8699 19.244 18.8099L19.1196 18.6699L19.1866 18.5399L19.244 18.5199C19.2344 18.2899 19.2344 18.0399 19.2344 17.9999H19.2249C19.0335 18.1199 18.9378 18.2599 18.9282 18.4499Z" fill="#009CDE"/>
<path d="M20.1719 23.48C20.5164 23.66 20.8417 23.92 20.9757 24.4C21.0331 23.6 20.6025 23.26 20.1814 23.02L20.1719 23.48Z" fill="#009CDE"/>
<path d="M22.4881 15.37C22.4881 14.64 21.9809 13.84 20.7465 13.56C20.6221 13.54 20.4977 13.52 20.3733 13.51C20.3733 13.62 20.3637 13.87 20.3637 13.87C20.3637 13.95 20.3541 14.24 20.3541 14.3C20.4307 14.31 20.5168 14.32 20.5934 14.33C21.3111 14.51 21.5695 14.94 21.5695 15.36C21.5695 16.05 21.0049 16.31 20.3159 16.51L20.0862 16.57C19.8757 16.62 19.6556 16.68 19.4451 16.74C19.3685 16.76 19.2919 16.78 19.2154 16.81C18.4498 17.05 17.7896 17.44 17.7896 18.43C17.7896 19.42 18.5455 19.78 19.2824 20.02C19.2824 19.74 19.2728 19.45 19.2632 19.17C18.9283 19.01 18.7082 18.8 18.7082 18.45C18.7082 18.1 18.9187 17.9 19.2345 17.75C19.3015 17.72 19.3781 17.69 19.4642 17.66C19.646 17.59 19.8565 17.54 20.0671 17.48L20.2967 17.42C21.3302 17.16 22.4977 16.82 22.4881 15.37Z" fill="#009CDE"/>
<path d="M18.7656 22.3C18.7656 22.7 19.0431 22.91 19.3206 23.08C19.3206 23.01 19.3111 22.4 19.3111 22.39C19.3206 22.27 19.4259 22.19 19.5216 22.15C19.6651 22.08 19.8183 22.02 19.9714 21.97C20.0575 21.94 20.1245 21.91 20.201 21.89C20.7656 21.71 21.4163 21.49 21.4163 20.77C21.4163 20.05 20.8613 19.76 20.2489 19.54C20.2393 19.77 20.2393 20.1 20.2297 20.33C20.4881 20.43 20.6604 20.56 20.6604 20.77C20.6604 21.03 20.402 21.17 20.2106 21.25C20.134 21.28 20.0192 21.32 19.9809 21.33C19.8278 21.38 19.6747 21.43 19.5216 21.49C19.4451 21.52 19.3685 21.55 19.2919 21.59C19.0431 21.73 18.7656 21.94 18.7656 22.3Z" fill="#009CDE"/>
<path d="M19.1486 13.6201C18.9189 13.7001 18.6892 13.7901 18.4691 13.9101C18.2299 13.9901 17.8854 14.0101 17.5313 14.4101C17.4165 14.5501 17.3112 14.7001 17.206 14.8501C17.1007 15.0101 17.0911 15.2701 17.0146 15.4001C16.8998 15.6001 16.9285 15.7201 16.9285 15.7201C16.9093 15.8101 16.8615 15.9001 16.8041 15.9701C16.6892 16.1101 16.517 16.1801 16.3447 16.1501C16.5074 16.2301 16.7275 16.1201 16.7275 16.1201C16.6892 16.2301 16.6605 16.3401 16.6414 16.4501C16.8232 16.0201 16.9859 15.8701 17.0433 15.8201C17.1198 15.8401 17.2825 15.8301 17.5792 15.6501C17.9141 15.4501 18.4213 15.1201 18.5648 14.9101C18.7179 14.7001 18.9189 14.5301 19.1581 14.4401C19.1581 14.1401 19.1486 13.8601 19.1486 13.6201ZM17.7323 14.9501L17.56 14.9901L17.7706 14.6301L18.0098 14.6401L17.7323 14.9501Z" fill="#009CDE"/>
<path d="M19.8469 22.25C19.8182 22.26 19.7321 22.3 19.6747 22.32C19.6173 22.34 19.5503 22.37 19.5503 22.39C19.5503 22.39 19.6077 25.47 19.6077 25.53C19.6077 26.16 19.9139 26.17 19.9139 25.53C19.9139 25.49 19.9809 22.2 19.9809 22.2C19.9809 22.2 19.8948 22.23 19.8469 22.25Z" fill="#009CDE"/>
<path d="M19.5213 21.23C19.617 21.2 19.7127 21.16 19.7988 21.14C19.8658 21.12 19.9232 21.1 19.9902 21.08C19.9902 20.89 20.0476 18.21 20.0572 17.73C19.8562 17.78 19.6553 17.84 19.4639 17.91C19.4734 18.27 19.5213 20.94 19.5213 21.23Z" fill="#009CDE"/>
<path d="M19.7797 11C18.9184 11 19.2821 12.34 19.3491 12.78C19.3491 12.8 19.416 15.81 19.4352 16.5C19.5692 16.46 19.6936 16.43 19.8275 16.4L20.0859 16.33C20.0955 15.66 20.1625 12.79 20.1625 12.77C20.2199 12.31 20.6696 11 19.7797 11Z" fill="#009CDE"/>
</svg>
