<svg width="370" height="300" viewBox="0 0 370 300" fill="none" xmlns="http://www.w3.org/2000/svg">
<path d="M176.163 261.754C176.163 261.754 310.552 250.653 344.714 213.158C378.858 175.644 361.565 143.089 332.016 136.162C302.466 129.253 296.622 119.72 310.754 104.809C324.867 89.8987 341.81 60.4055 306.674 35.688C271.538 10.9706 238.276 54.3355 208.727 51.7653C179.177 49.1951 188.972 30.2743 151.961 46.1693C114.951 62.0825 119.949 25.4073 88.9294 25.0428C57.9097 24.6782 62.6876 60.4237 28.8378 70.4128C-29.0486 87.4926 19.7046 160.606 10.406 180.839C1.10746 201.073 -2.86189 265.108 48.6846 269.355C100.213 273.621 176.163 261.754 176.163 261.754Z" fill="url(#paint0_linear_1670_104646)"/>
<path d="M44.8671 60.2779C36.6711 100.599 25.1306 209.531 126.11 254.828C131.752 257.361 138.367 254.518 140.371 248.703C150.459 219.41 168.082 132.589 61.4429 53.9527C55.2315 49.3774 46.374 52.7861 44.8671 60.2779Z" fill="#91B3FA"/>
<path d="M0.26244 147.919C5.73868 179.837 28.3236 263.048 115.374 268.006C120.244 268.28 124.286 264.342 124.103 259.512C123.165 235.159 111.349 166.475 10.6269 138.641C4.76472 137.018 -0.766651 141.995 0.26244 147.919Z" fill="#BDD0FB"/>
<path d="M292.874 251.437C303.091 253.461 316.157 242.414 320.365 230.329C324.702 217.897 316.763 212.684 316.818 195.44C316.892 175.845 327.164 172.892 333.964 146.479C335.489 140.519 344.365 106.031 333.376 99.5597C323.213 93.5809 294.638 110.734 289.621 132.699C286.056 148.357 297.082 154.919 292.874 173.165C289.18 189.17 279.459 189.388 275.728 204.828C271.207 223.603 279.459 248.776 292.874 251.437Z" fill="#BDD0FB"/>
<path d="M293.627 256.177C290.87 235.068 296.255 202.494 301.253 178.889C306.656 153.333 312.794 132.48 312.867 132.279L313.713 132.535C313.657 132.735 307.52 153.57 302.117 179.089C297.137 202.622 291.771 235.087 294.509 256.085L293.627 256.177Z" fill="#7D97F4"/>
<path d="M310.331 248.521C298.35 242.323 294.252 221.069 301.069 214.161C305.664 209.494 312.261 214.398 318.638 209.567C326.76 203.388 320.788 191.758 327.183 176.665C332.622 163.832 345.651 151.674 353.278 154.172C361.253 156.778 365.461 176.155 358.644 187.803C354.215 195.385 347.434 195.75 345.964 202.804C344.255 210.989 352.506 214.707 352.542 222.637C352.616 236.873 326.172 256.705 310.331 248.521Z" fill="#BDD0FB"/>
<path d="M316.8 253.953C316.726 253.953 316.653 253.935 316.579 253.898C316.34 253.789 316.23 253.497 316.359 253.26C332.236 220.814 336.886 183.154 336.941 182.79C336.977 182.516 337.216 182.334 337.474 182.371C337.749 182.407 337.933 182.644 337.896 182.899C337.859 183.282 333.173 221.087 317.222 253.679C317.149 253.862 316.984 253.953 316.8 253.953Z" fill="#7D97F4"/>
<path d="M349.363 192.651C349.29 192.651 349.216 192.633 349.143 192.578C348.996 192.451 348.959 192.232 349.088 192.086C358.129 180.566 358.735 171.962 357.633 166.785C356.457 161.207 353.13 158.309 353.094 158.273C352.947 158.145 352.928 157.926 353.057 157.762C353.186 157.616 353.406 157.598 353.571 157.726C353.718 157.853 357.1 160.825 358.331 166.621C359.452 171.944 358.864 180.766 349.657 192.505C349.584 192.615 349.473 192.651 349.363 192.651Z" fill="#F0F0F0"/>
<path d="M309.247 245.805C309.137 245.805 309.027 245.75 308.953 245.659C301.217 234.467 298.589 225.808 301.143 219.939C303.403 214.689 308.971 213.741 309.192 213.705C309.394 213.668 309.578 213.814 309.596 213.996C309.633 214.197 309.504 214.379 309.302 214.397C309.247 214.397 303.9 215.327 301.786 220.231C299.397 225.79 302.062 234.449 309.541 245.258C309.651 245.422 309.615 245.641 309.449 245.75C309.394 245.787 309.321 245.805 309.247 245.805Z" fill="#F0F0F0"/>
<path d="M63.409 212.957L55.4703 214.926L57.455 229.691C57.455 229.691 54.4779 232.644 53.4856 236.581C52.4933 240.518 51.5744 257.051 51.5744 257.051L49.6816 258.182L49.4611 259.129L54.9374 266.439L54.0369 260.624C53.8899 259.694 54.1472 257.835 54.0553 257.78C57.0323 249.906 63.409 227.722 63.409 227.722V212.957Z" fill="url(#paint1_linear_1670_104646)"/>
<path d="M65.7244 259.239C65.6325 259.239 65.559 259.239 65.4671 259.239C65.853 254.481 67.5988 233.592 69.363 225.753C71.3476 216.894 66.3859 199.177 66.3859 199.177L57.4549 208.036L62.4166 224.769C59.0169 229.836 62.9679 259.457 62.8944 259.457V259.53L61.608 261.298L61.7734 262.264L69.6754 266.894L66.5697 261.882C66.0552 261.061 65.7795 260.168 65.7244 259.239Z" fill="url(#paint2_linear_1670_104646)"/>
<path d="M55.6906 159.876C55.6906 159.876 38.288 183.81 55.6906 196.096L57.4548 194.528C57.4548 194.528 48.8178 184.43 57.4548 172.071L55.6906 159.876Z" fill="url(#paint3_linear_1670_104646)"/>
<path d="M70.1898 267.606H67.6722C67.1945 267.606 66.7534 267.387 66.4594 267.022C65.6692 266.001 64.0337 264.033 63.2619 263.978C62.2144 263.905 62.343 267.606 62.343 267.606H61.755L61.0015 263.012C60.8178 261.864 61.3874 260.715 62.4349 260.168C62.4349 260.168 62.6738 261.937 63.9786 262.702C65.2833 263.486 69.271 266.275 69.271 266.275C69.271 266.275 69.7672 266.202 70.3001 266.293C71.1087 266.439 70.9984 267.606 70.1898 267.606Z" fill="url(#paint4_linear_1670_104646)"/>
<path d="M55.1394 267.314L52.8056 266.348C52.3645 266.166 52.0521 265.801 51.9235 265.345C51.5927 264.106 50.8577 261.663 50.1593 261.317C49.2221 260.843 47.899 264.306 47.899 264.306L47.3477 264.088L48.4503 259.567C48.726 258.437 49.7183 257.598 50.8944 257.489C50.8944 257.489 50.435 259.202 51.3171 260.424C52.2175 261.645 54.8086 265.746 54.8086 265.746C54.8086 265.746 55.2864 265.874 55.7458 266.166C56.4442 266.585 55.8928 267.624 55.1394 267.314Z" fill="url(#paint5_linear_1670_104646)"/>
<path d="M68.6647 184.193C68.6647 184.193 68.3707 185.961 68.7933 190.846C69.216 195.732 71.2742 207.179 70.8515 218.134C70.8515 218.134 65.0445 219.483 54.9373 218.845C54.9373 218.845 50.6739 201.729 51.7214 195.221C52.7505 188.714 58.3921 184.047 58.3921 184.047L68.6647 184.193Z" fill="url(#paint6_linear_1670_104646)"/>
<path d="M64.3645 151.583L65.0812 159.876H58.337L60.0093 147.226L64.3645 151.583Z" fill="url(#paint7_linear_1670_104646)"/>
<path d="M56.3338 158.728C58.6676 158.601 63.8682 158.364 67.5619 158.564C69.5099 158.674 71.127 160.059 71.5313 161.936L72.4317 166.22C72.7625 167.806 72.7258 169.465 72.2847 171.032L68.6645 184.193C68.6645 184.193 65.4486 186.107 58.392 184.066C58.392 184.066 52.1991 169.41 54.735 160.023C54.9188 159.293 55.562 158.765 56.3338 158.728Z" fill="url(#paint8_linear_1670_104646)"/>
<path d="M71.3476 161.171C72.3399 163.777 73.2404 166.493 74.196 169.045C74.6921 170.321 75.1883 171.579 75.7212 172.727C75.9969 173.293 76.2909 173.821 76.5666 174.295C76.8422 174.769 77.1362 175.152 77.3016 175.334C77.3384 175.352 77.2281 175.389 77.1914 175.389C77.173 175.389 77.8713 175.498 78.0734 175.535H78.9004C80.0949 175.48 81.4364 175.261 82.7962 175.006C85.516 174.496 88.3644 173.785 91.2679 173.256H91.2862C91.8375 173.147 92.3705 173.511 92.4807 174.076C92.5542 174.441 92.4072 174.805 92.1499 175.024C90.9738 176.045 89.7242 176.883 88.4379 177.704C87.7947 178.105 87.1331 178.488 86.4532 178.852C85.7733 179.198 85.0749 179.545 84.3583 179.873C82.9249 180.493 81.4364 181.058 79.7273 181.441C79.2863 181.513 78.8269 181.586 78.3675 181.659C77.8529 181.678 77.3751 181.714 76.8055 181.696C76.5114 181.659 76.199 181.623 75.905 181.586C75.7396 181.55 75.6294 181.55 75.4272 181.495C75.2251 181.441 75.0229 181.368 74.8024 181.295C74.3797 181.149 74.1041 180.967 73.7549 180.766C73.4609 180.584 73.2036 180.383 72.9464 180.183C72.0092 179.399 71.4211 178.615 70.9249 177.85C70.4104 177.102 70.0061 176.337 69.6386 175.608C68.9035 174.131 68.3338 172.673 67.8744 171.196C66.9372 168.243 66.3124 165.345 66.0368 162.264C65.9081 160.788 67.0107 159.494 68.4992 159.366C69.7305 159.257 70.833 159.986 71.2557 161.08L71.3476 161.171Z" fill="url(#paint9_linear_1670_104646)"/>
<path d="M90.3674 174.569L91.5803 171.725L97.9202 170.158C97.9202 170.158 98.4348 171.251 95.7702 171.725C95.7702 171.725 96.7257 172.764 96.2112 173.986C95.6783 175.243 90.2939 176.465 90.3674 174.569Z" fill="url(#paint10_linear_1670_104646)"/>
<path d="M67.2312 142.013C67.4701 142.159 69.3629 148.794 67.7825 151.583C66.1837 154.372 61.3323 151.255 60.0092 147.226C58.6861 143.198 60.7994 138.258 67.2312 142.013Z" fill="url(#paint11_linear_1670_104646)"/>
<path d="M54.6248 147.226C53.5406 152.531 49.9204 151.072 47.366 153.424C43.2129 157.252 37.2956 153.314 31.5254 156.924C27.3723 159.53 25.3508 166.22 27.3539 171.616C30.1288 179.089 39.5743 182.17 44.4809 179.891C49.167 177.722 48.487 171.196 54.7902 168.681C57.4732 167.605 58.7779 168.298 60.3951 166.73C63.2067 163.96 62.4349 158.564 62.1592 156.504C61.5344 152.002 60.0092 151.182 60.7259 149.213C62.1409 145.367 68.7381 146.169 69.2894 143.453C69.7855 140.974 65.0076 136.289 60.5053 137.037C53.5406 138.149 55.121 144.856 54.6248 147.226Z" fill="url(#paint12_linear_1670_104646)"/>
<path d="M29.4488 170.358C29.3753 170.358 29.2834 170.303 29.2651 170.212C28.383 166.548 28.7873 163.541 30.4595 161.262C33.2712 157.507 38.7106 157.143 38.7658 157.143C38.8577 157.124 38.9495 157.215 38.9495 157.307C38.9495 157.398 38.876 157.489 38.7841 157.489C38.729 157.489 33.4549 157.853 30.7536 161.481C29.1364 163.65 28.7505 166.567 29.6142 170.121C29.6326 170.212 29.5775 170.322 29.4856 170.34C29.4672 170.358 29.4488 170.358 29.4488 170.358Z" fill="#91B3FA"/>
<path d="M47.2926 173.712H47.2743C47.2191 173.694 47.2007 173.657 47.2007 173.602C48.0644 170.303 49.5897 168.006 51.7214 166.785C53.2834 165.892 54.7352 165.819 56.0215 165.746C57.2528 165.673 58.337 165.619 59.1823 164.853C60.9648 163.285 60.8546 159.512 58.8699 153.643C58.8515 153.588 58.8883 153.551 58.925 153.533C58.9802 153.515 59.0169 153.551 59.0353 153.588C61.0383 159.53 61.1302 163.376 59.2926 164.981C58.3921 165.783 57.2895 165.837 56.0215 165.91C54.7535 165.983 53.3202 166.056 51.8133 166.931C49.7183 168.134 48.2298 170.376 47.3661 173.639C47.3661 173.694 47.3294 173.712 47.2926 173.712Z" fill="#91B3FA"/>
<path d="M57.2158 145.914C57.1975 145.914 57.1975 145.914 57.1791 145.914C57.124 145.896 57.1056 145.841 57.124 145.805C57.8223 143.763 59.8069 144.073 61.9019 144.401C63.2434 144.601 64.6216 144.82 65.7793 144.474C66.643 144.219 67.176 143.818 67.323 143.289C67.5803 142.396 66.6798 141.393 66.6798 141.375C66.6431 141.339 66.6431 141.284 66.6798 141.247C66.7166 141.211 66.7717 141.211 66.8084 141.247C66.8452 141.284 67.7824 142.341 67.5068 143.325C67.3414 143.909 66.7717 144.364 65.8345 144.638C64.6216 144.984 63.225 144.784 61.8651 144.565C59.7518 144.237 57.9141 143.963 57.2893 145.859C57.2893 145.877 57.2526 145.914 57.2158 145.914Z" fill="#91B3FA"/>
<path d="M356.015 190.373C356.015 190.373 366.656 196.224 367.538 206.122C368.42 216.02 367.611 257.124 346.257 267.241C324.904 277.358 296.641 275.025 285.817 273.913C274.993 272.801 269.002 265.509 267.661 260.497C266.319 255.484 264.151 236.764 275.544 230.73C286.919 224.696 298.882 215.455 310.827 206.45C322.772 197.464 343.244 182.772 356.015 190.373Z" fill="#7D97F4"/>
<path d="M278.907 234.157C278.907 234.157 281.774 234.303 282.141 240.172C282.141 240.172 275.471 246.096 266.466 247.5C265.786 247.609 267.403 242.925 267.66 242.287C268.818 239.279 272.475 237.347 278.907 234.157Z" fill="url(#paint13_linear_1670_104646)"/>
<path d="M311.287 227.267H308.402C306.398 227.267 304.487 226.464 303.109 225.043C298.331 220.158 286.386 208.637 276.959 205.466C275.415 204.955 273.743 205.684 273.063 207.143C271.097 211.317 268.322 221.014 274.883 235.706C275.599 237.329 277.657 238.021 279.164 237.037C279.587 236.763 279.899 236.381 280.083 235.925L279.366 218.754C279.366 218.754 295.244 232.534 298 235.196C300.72 237.839 314.76 236.217 311.287 227.267Z" fill="url(#paint14_linear_1670_104646)"/>
<path d="M252.647 270.085C255.183 267.879 259.244 265.4 265.088 264.689L267.072 265.892C267.072 265.892 265.804 267.733 263.507 269.684C261.394 270.905 258.123 272.564 255.422 272.91C252.757 273.256 252.371 271.67 252.647 270.085Z" fill="url(#paint15_linear_1670_104646)"/>
<path d="M267.66 242.305C269.222 242.815 269.921 245.003 273.89 243.544C277.731 242.141 280.598 240.318 282.068 239.279C282.104 239.571 282.123 239.862 282.141 240.172C282.141 240.172 275.121 246.807 266.117 248.211C265.437 248.32 264.904 247.646 265.143 247.008C265.584 245.878 266.374 244.146 267.66 242.305Z" fill="url(#paint16_linear_1670_104646)"/>
<path d="M250.736 271.962C251.232 271.397 251.875 270.741 252.647 270.085C252.371 271.671 252.775 273.257 255.403 272.91C258.105 272.546 261.376 270.905 263.489 269.684C260.843 271.926 256.8 274.314 251.71 274.168C250.589 274.132 249.982 272.801 250.736 271.962Z" fill="url(#paint17_linear_1670_104646)"/>
<path d="M311.066 231.623L282.656 231.933C282.656 231.933 266.429 245.24 263.489 265.546C263.489 265.546 262.993 267.041 265.933 267.296C265.933 267.296 275.746 260.934 282.141 249.705C289.988 235.925 305.516 242.141 305.516 242.141C310.625 238.495 317.829 237.748 323.268 236.526L311.066 231.623Z" fill="url(#paint18_linear_1670_104646)"/>
<path d="M308.751 231.368C308.751 231.368 312.224 221.999 312.977 212.885C312.977 212.885 310.441 210.716 308.843 209.786C308.328 209.476 308.126 208.838 308.402 208.309C309.578 205.903 316.634 196.479 317.167 196.352C320.052 195.641 331.85 190.081 340.156 201.346C343.721 206.195 339.44 221.087 323.268 236.527L319.924 237.165L308.751 231.368Z" fill="url(#paint19_linear_1670_104646)"/>
<path d="M327.789 188.386L329.902 195.386C329.994 195.714 329.884 196.06 329.608 196.242C328.597 196.935 325.933 198.302 322.276 196.972C321.853 196.826 321.578 196.425 321.541 195.987L321.045 189.899L327.789 188.386Z" fill="url(#paint20_linear_1670_104646)"/>
<path d="M315.403 182.717C315.403 182.717 316.451 189.972 319.244 192.196C322.056 194.42 327.513 192.743 329.37 187.274L325.694 177.923L315.403 182.717Z" fill="url(#paint21_linear_1670_104646)"/>
<path d="M326.117 183.975C325.896 184.048 325.676 183.902 325.639 183.683C325.529 183.009 325.29 181.696 324.775 180.785C324.775 180.785 325.051 179.837 322.35 181.277C319.667 182.717 315.624 184.831 313.235 183.574C310.919 182.352 308.567 176.191 314.705 177.321C314.944 177.358 315.146 177.176 315.128 176.939C315.054 175.918 315.146 173.603 317.535 172.837C319.758 172.145 320.99 173.129 321.486 173.73C321.633 173.913 321.908 173.913 322.056 173.73C322.717 172.874 324.536 171.033 327.201 172.199C329.406 173.165 329.737 174.496 329.7 175.335C329.682 175.608 329.957 175.79 330.215 175.681C330.895 175.371 331.979 175.207 333.008 176.501C334.441 178.287 332.402 179.819 331.777 180.238C331.685 180.311 331.611 180.42 331.611 180.53C331.611 181.459 331.464 185.506 329.425 187.784C329.241 187.985 328.928 187.93 328.818 187.675L327.238 183.956C327.164 183.792 326.962 183.701 326.797 183.756L326.117 183.975Z" fill="url(#paint22_linear_1670_104646)"/>
<path d="M326.08 184.741C326.08 184.741 327.035 180.858 328.506 182.116C329.976 183.373 328.12 186.144 326.447 186.673L326.08 184.741Z" fill="url(#paint23_linear_1670_104646)"/>
<path d="M312.977 213.103C312.849 213.103 312.757 213.012 312.757 212.885C312.738 208.656 314.392 203.041 314.392 202.987C314.429 202.877 314.558 202.805 314.668 202.841C314.778 202.877 314.852 203.005 314.815 203.114C314.796 203.169 313.179 208.71 313.198 212.885C313.198 213.012 313.088 213.103 312.977 213.103Z" fill="url(#paint24_linear_1670_104646)"/>
<path d="M322.147 215.163C322.092 215.163 322.055 215.145 322 215.108C321.908 215.035 321.89 214.89 321.964 214.798C322 214.744 326.392 209.221 327.881 205.466C327.918 205.356 328.065 205.302 328.175 205.338C328.285 205.374 328.34 205.52 328.303 205.63C326.778 209.458 322.368 215.017 322.313 215.072C322.276 215.127 322.221 215.163 322.147 215.163Z" fill="url(#paint25_linear_1670_104646)"/>
<path d="M328.34 223.676L327.495 222.509C327.421 222.418 327.44 222.272 327.55 222.199C327.642 222.126 327.789 222.145 327.862 222.254L328.487 223.129C334.643 220.413 338.447 213.103 338.502 213.031C338.558 212.921 338.686 212.885 338.796 212.939C338.907 212.994 338.943 213.122 338.888 213.231C338.852 213.304 334.901 220.887 328.487 223.603L328.34 223.676Z" fill="url(#paint26_linear_1670_104646)"/>
<path d="M309.081 208.838C309.081 208.838 304.414 222.163 295.317 212.028L294.454 211.645L287.93 207.234L288.665 209.786C289.069 211.208 290.098 212.356 291.477 212.921L292.34 213.267C293.976 216.639 297.467 221.743 302.87 222.709C310.956 224.168 315.109 213.322 315.109 213.322L309.081 208.838Z" fill="url(#paint27_linear_1670_104646)"/>
<path d="M284.696 203.825L284.236 204.445C284.016 204.755 284.089 205.174 284.402 205.374L294.674 212.337C294.95 212.52 295.317 212.483 295.538 212.246C295.813 211.955 295.777 211.517 295.464 211.28L285.651 203.697C285.357 203.46 284.916 203.515 284.696 203.825Z" fill="url(#paint28_linear_1670_104646)"/>
<path d="M293.957 210.241C293.829 210.132 301.896 206.213 304.928 206.577C307.887 206.924 311.36 209.111 314.594 211.718C317.516 214.051 320.512 215.564 323.342 215.455C323.342 215.455 328.156 220.65 327.091 223.785C327.091 223.785 321.743 225.043 317.167 220.558C312.83 216.311 308.034 210.879 305.333 209.895C305.112 209.804 304.855 209.84 304.653 209.968C303.844 210.478 301.308 211.718 298 209.749C298 209.731 295.299 211.408 293.957 210.241Z" fill="url(#paint29_linear_1670_104646)"/>
<path d="M296.346 192.141C296.604 194.018 297.118 197.609 297.725 199.851C297.872 200.38 298.349 200.763 298.901 200.817C300.665 200.945 304.616 201.109 306.931 200.198C307.446 199.997 307.777 199.487 307.758 198.922C307.685 197.19 307.446 193.161 307.005 190.755C306.876 190.099 306.27 189.625 305.59 189.698C303.715 189.862 299.967 190.245 297.449 190.682C296.732 190.81 296.254 191.448 296.346 192.141Z" fill="#7D97F4"/>
<path d="M290.962 194.802L291.183 196.315C291.238 196.661 291.55 196.898 291.899 196.844L293.682 196.607C294.013 196.552 294.252 196.26 294.233 195.932L294.123 194.675C294.086 194.346 293.811 194.109 293.498 194.109H291.605C291.201 194.073 290.907 194.419 290.962 194.802Z" fill="#7D97F4"/>
<path d="M291.679 200.781L292.046 202.805C292.193 203.588 292.983 204.062 293.755 203.825L295.115 203.388C295.703 203.206 296.071 202.64 296.034 202.039L295.869 200.07C295.795 199.268 295.023 198.721 294.233 198.904L292.689 199.286C291.973 199.432 291.55 200.089 291.679 200.781Z" fill="#7D97F4"/>
<path d="M134.03 232.061C132.137 225.006 128.095 219.246 123.151 215.746C118.741 212.611 115.672 207.926 114.698 202.622C114.588 202.057 114.477 201.51 114.312 200.945C112.033 192.451 104.94 186.964 98.4714 188.677C92.0028 190.391 88.6031 198.648 90.8819 207.143C91.3413 208.874 92.0212 210.497 92.8298 211.937C95.4576 216.567 96.303 221.999 95.0166 227.139C93.8589 231.751 93.8772 236.982 95.2922 242.287C97.4056 250.179 102.22 256.432 107.954 259.749C110.122 261.007 112.07 262.647 113.632 264.58C116.242 267.806 120.082 269.447 123.703 268.481C127.617 267.442 130.208 263.668 130.612 259.148C130.833 256.577 131.549 254.098 132.652 251.765C135.28 246.26 135.941 239.206 134.03 232.061Z" fill="#7D97F4"/>
<path d="M103.176 197.117C105.528 202.513 107.697 207.963 109.81 213.45C110.343 214.817 110.839 216.202 111.353 217.569L112.125 219.629L112.879 221.707C113.375 223.092 113.889 224.459 114.367 225.845L115.801 230.001C116.719 232.79 117.675 235.579 118.539 238.368C118.98 239.771 119.439 241.156 119.843 242.578L121.093 246.807C122.692 252.458 124.162 258.145 125.32 263.905L125.062 263.96L124.033 259.695L123.776 258.619L123.5 257.562L122.931 255.447L122.361 253.315C122.177 252.604 121.957 251.911 121.755 251.2C121.35 249.797 120.946 248.375 120.523 246.971C118.814 241.357 117.032 235.779 115.121 230.22C114.147 227.449 113.191 224.678 112.217 221.907L111.482 219.829L110.729 217.77C110.233 216.384 109.718 215.017 109.203 213.632C108.193 210.879 107.164 208.127 106.116 205.393C105.069 202.64 104.021 199.906 102.937 197.19L103.176 197.117Z" fill="#BDD0FB"/>
<path d="M112.07 240.737C108.395 236.891 103.801 234.612 99.4271 234.065C95.5129 233.573 91.9294 231.641 89.4486 228.597C89.1913 228.269 88.9157 227.959 88.6216 227.649C84.1929 223.019 77.761 221.944 74.2327 225.243C70.7044 228.542 71.4395 234.995 75.8683 239.625C76.7687 240.573 77.761 241.375 78.7901 242.013C82.0796 244.054 84.5237 247.226 85.516 250.963C86.3981 254.299 88.2357 257.634 90.9922 260.533C95.1086 264.835 100.346 267.186 105.161 267.332C106.98 267.386 108.781 267.769 110.471 268.462C113.265 269.629 116.278 269.355 118.263 267.496C120.395 265.491 120.726 262.191 119.384 259.166C118.631 257.452 118.226 255.611 118.098 253.752C117.84 249.359 115.782 244.619 112.07 240.737Z" fill="#91B3FA"/>
<path d="M80.187 229.017C83.5683 231.641 86.8577 234.376 90.1287 237.146C90.9373 237.839 91.7459 238.55 92.5545 239.243L93.7673 240.3L94.9618 241.357C95.752 242.068 96.5789 242.779 97.3691 243.49L99.7397 245.659C101.302 247.117 102.882 248.575 104.407 250.052C105.179 250.799 105.951 251.528 106.723 252.294L109.002 254.554C111.997 257.617 114.919 260.734 117.675 264.015L117.528 264.142L115.378 261.773L114.845 261.171L114.294 260.588L113.191 259.421L112.089 258.255C111.721 257.872 111.335 257.489 110.968 257.106C110.214 256.341 109.461 255.593 108.708 254.828C105.657 251.838 102.57 248.885 99.4089 246.005C97.8286 244.565 96.2482 243.125 94.6494 241.703L93.4549 240.628L92.2421 239.571C91.4335 238.86 90.6433 238.149 89.8347 237.456C88.2359 236.053 86.6004 234.649 84.9833 233.264C83.3661 231.878 81.7306 230.493 80.0951 229.108L80.187 229.017Z" fill="#BDD0FB"/>
<path d="M121.456 257.088L120.831 256.213C120.776 256.14 120.795 256.012 120.868 255.957C120.942 255.903 121.07 255.921 121.125 255.994L121.75 256.851C121.805 256.923 121.787 257.033 121.713 257.106C121.622 257.197 121.511 257.179 121.456 257.088Z" fill="white"/>
<path d="M119.527 254.08L119.049 253.114C118.994 253.023 119.049 252.895 119.141 252.859C119.233 252.804 119.361 252.859 119.398 252.95L119.876 253.898C119.931 253.989 119.876 254.098 119.784 254.153C119.674 254.208 119.563 254.171 119.527 254.08Z" fill="white"/>
<path d="M118.075 250.781L117.744 249.76C117.707 249.651 117.762 249.541 117.873 249.505C117.983 249.469 118.093 249.523 118.13 249.633L118.442 250.635C118.479 250.745 118.424 250.854 118.314 250.89C118.24 250.945 118.112 250.89 118.075 250.781Z" fill="white"/>
<path d="M117.138 247.317L116.954 246.26C116.936 246.133 117.009 246.023 117.138 246.005C117.267 245.987 117.377 246.06 117.395 246.187L117.579 247.226C117.597 247.354 117.524 247.463 117.395 247.482C117.267 247.518 117.156 247.445 117.138 247.317Z" fill="white"/>
<path d="M116.678 243.781L116.623 242.706C116.623 242.578 116.715 242.469 116.843 242.451C116.972 242.451 117.082 242.542 117.101 242.669L117.137 243.727C117.137 243.854 117.046 243.964 116.917 243.964C116.788 244 116.678 243.909 116.678 243.781Z" fill="white"/>
<path d="M116.642 240.19L116.716 239.115C116.734 238.969 116.844 238.878 116.991 238.878C117.138 238.896 117.23 239.005 117.23 239.151L117.157 240.208C117.138 240.336 117.028 240.445 116.899 240.427C116.734 240.445 116.642 240.318 116.642 240.19Z" fill="white"/>
<path d="M117.027 236.618L117.211 235.561C117.229 235.415 117.376 235.324 117.523 235.342C117.67 235.36 117.762 235.506 117.744 235.652L117.542 236.691C117.523 236.837 117.376 236.928 117.229 236.891C117.101 236.891 117.009 236.764 117.027 236.618Z" fill="white"/>
<path d="M117.799 233.118L118.112 232.079C118.148 231.933 118.314 231.842 118.461 231.897C118.608 231.933 118.7 232.097 118.644 232.243L118.332 233.264C118.295 233.41 118.13 233.483 117.983 233.446C117.836 233.428 117.762 233.264 117.799 233.118Z" fill="white"/>
<path d="M118.957 229.727L119.38 228.743C119.435 228.597 119.619 228.524 119.766 228.579C119.913 228.634 119.986 228.816 119.931 228.962L119.508 229.928C119.453 230.074 119.269 230.146 119.122 230.074C118.957 230.037 118.883 229.873 118.957 229.727Z" fill="white"/>
<path d="M120.445 226.464L120.942 225.517C121.015 225.371 121.199 225.316 121.364 225.389C121.511 225.462 121.566 225.644 121.493 225.808L120.997 226.738C120.923 226.884 120.739 226.938 120.592 226.865C120.409 226.793 120.353 226.61 120.445 226.464Z" fill="white"/>
<path d="M122.21 223.347L122.798 222.436C122.89 222.29 123.092 222.236 123.239 222.345C123.386 222.436 123.441 222.637 123.331 222.782L122.743 223.676C122.651 223.821 122.448 223.858 122.301 223.767C122.154 223.676 122.118 223.493 122.21 223.347Z" fill="white"/>
<path d="M124.213 220.376L124.856 219.52C124.966 219.374 125.168 219.337 125.315 219.447C125.462 219.556 125.499 219.757 125.389 219.902L124.746 220.741C124.636 220.887 124.433 220.905 124.286 220.814C124.139 220.723 124.121 220.504 124.213 220.376Z" fill="white"/>
<path d="M126.436 217.551L127.135 216.73C127.263 216.585 127.484 216.566 127.631 216.694C127.778 216.821 127.796 217.04 127.668 217.186L126.969 217.988C126.841 218.134 126.62 218.152 126.492 218.024C126.326 217.897 126.308 217.696 126.436 217.551Z" fill="white"/>
<path d="M128.825 214.871L129.579 214.087C129.707 213.941 129.946 213.941 130.093 214.069C130.24 214.197 130.24 214.434 130.112 214.579L129.377 215.345C129.248 215.491 129.009 215.491 128.88 215.363C128.697 215.236 128.697 214.999 128.825 214.871Z" fill="white"/>
<path d="M131.343 212.319L132.115 211.572C132.262 211.426 132.5 211.444 132.647 211.59C132.794 211.736 132.794 211.973 132.629 212.119L131.857 212.848C131.71 212.993 131.471 212.975 131.324 212.829C131.196 212.684 131.196 212.447 131.343 212.319Z" fill="white"/>
<path d="M133.989 209.877L134.798 209.166C134.963 209.02 135.202 209.038 135.349 209.202C135.496 209.366 135.477 209.603 135.312 209.749L134.504 210.442C134.338 210.588 134.099 210.569 133.971 210.405C133.805 210.26 133.824 210.023 133.989 209.877Z" fill="white"/>
<path d="M136.727 207.562L137.554 206.887C137.719 206.741 137.977 206.778 138.124 206.942C138.271 207.106 138.234 207.361 138.069 207.507L137.242 208.181C137.076 208.327 136.819 208.291 136.69 208.127C136.525 207.944 136.543 207.689 136.727 207.562Z" fill="white"/>
<path d="M139.52 205.32L140.366 204.664C140.55 204.518 140.807 204.554 140.954 204.737C141.101 204.919 141.064 205.174 140.88 205.32L140.035 205.958C139.851 206.104 139.594 206.067 139.465 205.885C139.3 205.703 139.337 205.448 139.52 205.32Z" fill="white"/>
<path d="M142.387 203.169L143.251 202.531C143.435 202.403 143.71 202.44 143.839 202.622C143.967 202.804 143.931 203.077 143.747 203.205L142.883 203.825C142.699 203.952 142.442 203.916 142.295 203.734C142.148 203.551 142.203 203.296 142.387 203.169Z" fill="white"/>
<path d="M145.309 201.091L146.191 200.489C146.393 200.362 146.651 200.398 146.779 200.599C146.908 200.799 146.871 201.054 146.669 201.182L145.787 201.783C145.585 201.911 145.327 201.856 145.199 201.674C145.07 201.492 145.125 201.218 145.309 201.091Z" fill="white"/>
<path d="M148.304 199.104L149.205 198.521C149.407 198.393 149.683 198.448 149.811 198.648C149.94 198.849 149.885 199.122 149.683 199.25L148.782 199.833C148.58 199.961 148.304 199.906 148.176 199.705C148.047 199.487 148.102 199.231 148.304 199.104Z" fill="white"/>
<path d="M151.337 197.19L152.255 196.625C152.458 196.497 152.733 196.57 152.862 196.771C152.99 196.971 152.917 197.245 152.715 197.372L151.796 197.919C151.594 198.047 151.318 197.974 151.19 197.773C151.061 197.573 151.134 197.317 151.337 197.19Z" fill="white"/>
<path d="M154.424 195.349L155.361 194.82C155.581 194.693 155.857 194.766 155.986 194.984C156.114 195.203 156.041 195.476 155.82 195.604L154.883 196.133C154.663 196.26 154.387 196.187 154.277 195.969C154.13 195.732 154.203 195.476 154.424 195.349Z" fill="white"/>
<path d="M157.548 193.581L158.485 193.07C158.706 192.943 158.981 193.034 159.11 193.252C159.239 193.471 159.147 193.745 158.926 193.872L157.989 194.383C157.768 194.51 157.493 194.419 157.364 194.2C157.236 193.982 157.327 193.708 157.548 193.581Z" fill="white"/>
<path d="M160.709 191.886L161.664 191.394C161.885 191.284 162.179 191.357 162.289 191.594C162.399 191.813 162.326 192.105 162.087 192.214L161.131 192.706C160.911 192.815 160.617 192.743 160.506 192.506C160.396 192.287 160.47 192.013 160.709 191.886Z" fill="white"/>
<path d="M163.906 190.263L164.88 189.789C165.119 189.68 165.395 189.771 165.523 190.008C165.634 190.245 165.542 190.518 165.303 190.646L164.347 191.12C164.108 191.229 163.833 191.138 163.722 190.901C163.575 190.664 163.667 190.373 163.906 190.263Z" fill="white"/>
<path d="M167.14 188.714L168.114 188.258C168.353 188.149 168.647 188.24 168.758 188.495C168.868 188.732 168.776 189.024 168.519 189.133L167.545 189.589C167.306 189.698 167.012 189.589 166.901 189.352C166.791 189.097 166.901 188.823 167.14 188.714Z" fill="white"/>
<path d="M170.412 187.219L171.404 186.781C171.643 186.672 171.937 186.781 172.047 187.018C172.157 187.255 172.047 187.547 171.808 187.656L170.834 188.094C170.595 188.203 170.301 188.094 170.191 187.839C170.044 187.602 170.154 187.328 170.412 187.219Z" fill="white"/>
<path d="M173.701 185.779L174.693 185.36C174.95 185.251 175.245 185.378 175.355 185.615C175.465 185.852 175.336 186.162 175.098 186.271L174.105 186.691C173.848 186.8 173.554 186.672 173.462 186.435C173.333 186.18 173.444 185.888 173.701 185.779Z" fill="white"/>
<path d="M177.009 184.412L178.001 184.011C178.258 183.901 178.552 184.029 178.663 184.284C178.773 184.539 178.644 184.831 178.387 184.94L177.395 185.341C177.137 185.451 176.843 185.323 176.733 185.068C176.641 184.794 176.752 184.503 177.009 184.412Z" fill="white"/>
<path d="M180.353 183.081L181.364 182.698C181.621 182.589 181.934 182.735 182.025 182.99C182.136 183.245 181.989 183.555 181.731 183.646L180.721 184.029C180.463 184.12 180.169 183.993 180.059 183.737C179.967 183.482 180.096 183.191 180.353 183.081Z" fill="white"/>
<path d="M183.716 181.823L184.727 181.459C185.003 181.367 185.297 181.495 185.388 181.768C185.48 182.042 185.352 182.334 185.076 182.425L184.065 182.789C183.79 182.88 183.496 182.753 183.404 182.479C183.312 182.206 183.441 181.914 183.716 181.823Z" fill="white"/>
<path d="M187.079 180.602L188.09 180.238C188.365 180.147 188.659 180.293 188.77 180.566C188.862 180.839 188.715 181.131 188.439 181.24L187.428 181.587C187.153 181.678 186.859 181.532 186.767 181.259C186.675 180.985 186.803 180.694 187.079 180.602Z" fill="white"/>
<path d="M190.479 179.417L191.508 179.071C191.783 178.98 192.096 179.126 192.188 179.399C192.28 179.673 192.133 179.983 191.857 180.074L190.846 180.42C190.571 180.511 190.258 180.365 190.166 180.092C190.056 179.818 190.203 179.527 190.479 179.417Z" fill="white"/>
<path d="M193.879 178.287L194.908 177.959C195.202 177.868 195.496 178.014 195.588 178.306C195.68 178.597 195.533 178.889 195.239 178.98L194.209 179.308C193.934 179.399 193.621 179.235 193.529 178.962C193.438 178.689 193.603 178.379 193.879 178.287Z" fill="white"/>
<path d="M197.297 177.194L198.326 176.866C198.62 176.775 198.932 176.939 199.024 177.23C199.116 177.522 198.951 177.832 198.657 177.923L197.627 178.233C197.333 178.324 197.021 178.16 196.947 177.868C196.856 177.595 197.021 177.285 197.297 177.194Z" fill="white"/>
<path d="M200.733 176.154L201.762 175.845C202.056 175.753 202.369 175.917 202.46 176.209C202.552 176.501 202.387 176.811 202.093 176.902L201.064 177.212C200.77 177.303 200.457 177.139 200.365 176.847C200.274 176.537 200.439 176.227 200.733 176.154Z" fill="white"/>
<path d="M204.169 175.134L205.198 174.842C205.493 174.751 205.805 174.933 205.897 175.225C205.989 175.516 205.805 175.826 205.511 175.917L204.482 176.209C204.188 176.3 203.875 176.118 203.784 175.826C203.71 175.516 203.875 175.207 204.169 175.134Z" fill="white"/>
<path d="M207.624 174.131L208.653 173.839C208.966 173.748 209.278 173.931 209.352 174.222C209.444 174.532 209.26 174.842 208.966 174.915L207.937 175.206C207.643 175.298 207.312 175.115 207.238 174.824C207.146 174.532 207.312 174.222 207.624 174.131Z" fill="white"/>
<path d="M211.079 173.183L212.126 172.892C212.439 172.8 212.751 172.983 212.825 173.293C212.917 173.603 212.733 173.912 212.421 173.985L211.391 174.259C211.079 174.35 210.767 174.168 210.693 173.858C210.601 173.566 210.767 173.256 211.079 173.183Z" fill="white"/>
<path d="M214.534 172.235L215.581 171.962C215.894 171.889 216.206 172.053 216.28 172.363C216.353 172.673 216.188 172.983 215.875 173.056L214.828 173.329C214.516 173.402 214.203 173.238 214.13 172.928C214.056 172.636 214.24 172.327 214.534 172.235Z" fill="white"/>
<path d="M218.007 171.324L219.054 171.05C219.367 170.977 219.679 171.16 219.753 171.451C219.826 171.761 219.642 172.071 219.348 172.144L218.301 172.418C217.989 172.49 217.676 172.308 217.603 172.016C217.511 171.725 217.713 171.415 218.007 171.324Z" fill="white"/>
<path d="M221.48 170.431L222.528 170.157C222.84 170.084 223.153 170.267 223.244 170.577C223.318 170.886 223.134 171.196 222.822 171.269L221.774 171.524C221.462 171.597 221.149 171.415 221.076 171.105C220.984 170.832 221.186 170.504 221.48 170.431Z" fill="white"/>
<path d="M224.972 169.556L226.019 169.301C226.332 169.228 226.644 169.41 226.736 169.72C226.809 170.03 226.626 170.34 226.313 170.431L225.266 170.686C224.953 170.759 224.641 170.577 224.549 170.267C224.457 169.939 224.659 169.629 224.972 169.556Z" fill="white"/>
<path d="M228.445 168.681L229.492 168.426C229.805 168.353 230.117 168.535 230.209 168.845C230.283 169.155 230.099 169.465 229.786 169.556L228.739 169.811C228.427 169.884 228.114 169.702 228.022 169.392C227.949 169.064 228.133 168.754 228.445 168.681Z" fill="white"/>
<path d="M231.918 167.806L232.966 167.551C233.278 167.478 233.609 167.66 233.682 167.97C233.756 168.28 233.572 168.608 233.26 168.681L232.212 168.936C231.9 169.009 231.569 168.827 231.495 168.517C231.422 168.207 231.606 167.897 231.918 167.806Z" fill="white"/>
<path d="M235.41 166.95L236.457 166.694C236.77 166.621 237.1 166.804 237.174 167.114C237.247 167.423 237.064 167.752 236.751 167.824L235.704 168.08C235.391 168.153 235.06 167.97 234.987 167.66C234.895 167.351 235.079 167.022 235.41 166.95Z" fill="white"/>
<path d="M238.883 166.093L239.93 165.837C240.243 165.764 240.573 165.947 240.647 166.257C240.72 166.567 240.537 166.895 240.224 166.968L239.177 167.223C238.864 167.296 238.534 167.113 238.46 166.785C238.368 166.494 238.57 166.165 238.883 166.093Z" fill="white"/>
<path d="M242.356 165.218L243.403 164.962C243.716 164.889 244.047 165.072 244.12 165.382C244.194 165.691 244.01 166.02 243.697 166.093L242.65 166.348C242.338 166.421 242.007 166.238 241.933 165.91C241.841 165.619 242.044 165.309 242.356 165.218Z" fill="white"/>
<path d="M245.829 164.343L246.877 164.088C247.189 164.015 247.52 164.197 247.612 164.507C247.685 164.817 247.501 165.145 247.189 165.236L246.142 165.491C245.829 165.564 245.498 165.382 245.406 165.054C245.315 164.744 245.517 164.434 245.829 164.343Z" fill="white"/>
<path d="M249.302 163.468L250.35 163.194C250.662 163.103 250.993 163.304 251.085 163.614C251.177 163.923 250.975 164.251 250.662 164.343L249.615 164.616C249.302 164.707 248.972 164.507 248.88 164.197C248.788 163.869 248.972 163.541 249.302 163.468Z" fill="white"/>
<path d="M252.776 162.575L253.823 162.301C254.154 162.21 254.485 162.411 254.558 162.72C254.65 163.049 254.448 163.377 254.135 163.45L253.088 163.723C252.757 163.814 252.445 163.614 252.353 163.304C252.261 162.976 252.445 162.648 252.776 162.575Z" fill="white"/>
<path d="M256.23 161.645L257.26 161.372C257.59 161.28 257.921 161.481 258.013 161.791C258.105 162.119 257.903 162.447 257.59 162.538L256.543 162.812C256.212 162.903 255.881 162.702 255.808 162.392C255.716 162.064 255.9 161.736 256.23 161.645Z" fill="white"/>
<path d="M259.685 160.715L260.714 160.424C261.045 160.332 261.376 160.515 261.468 160.843C261.56 161.171 261.376 161.499 261.045 161.59L260.016 161.882C259.685 161.973 259.354 161.791 259.262 161.463C259.171 161.134 259.354 160.806 259.685 160.715Z" fill="white"/>
<path d="M263.14 159.749L264.169 159.458C264.5 159.366 264.831 159.549 264.922 159.877C265.014 160.205 264.831 160.533 264.5 160.624L263.471 160.916C263.14 161.007 262.809 160.825 262.717 160.497C262.625 160.187 262.809 159.84 263.14 159.749Z" fill="white"/>
<path d="M266.576 158.765L267.606 158.455C267.936 158.364 268.267 158.546 268.377 158.856C268.469 159.184 268.285 159.512 267.973 159.621L266.944 159.931C266.613 160.022 266.282 159.84 266.19 159.512C266.062 159.202 266.246 158.874 266.576 158.765Z" fill="white"/>
<path d="M269.995 157.762L271.024 157.452C271.354 157.361 271.685 157.543 271.795 157.853C271.887 158.181 271.704 158.509 271.391 158.619L270.362 158.929C270.031 159.02 269.7 158.838 269.59 158.528C269.498 158.2 269.682 157.853 269.995 157.762Z" fill="white"/>
<path d="M273.431 156.705L274.46 156.377C274.791 156.267 275.14 156.45 275.232 156.778C275.342 157.106 275.158 157.452 274.827 157.543L273.798 157.872C273.468 157.981 273.118 157.799 273.027 157.471C272.916 157.142 273.1 156.814 273.431 156.705Z" fill="white"/>
<path d="M276.831 155.611L277.86 155.283C278.19 155.174 278.54 155.356 278.65 155.684C278.76 156.012 278.576 156.359 278.246 156.468L277.216 156.796C276.886 156.906 276.537 156.723 276.426 156.395C276.316 156.067 276.5 155.721 276.831 155.611Z" fill="white"/>
<path d="M280.23 154.481L281.241 154.135C281.572 154.025 281.921 154.189 282.031 154.518C282.141 154.846 281.976 155.192 281.645 155.301L280.616 155.648C280.285 155.757 279.936 155.593 279.826 155.265C279.716 154.955 279.899 154.591 280.23 154.481Z" fill="white"/>
<path d="M283.593 153.315L284.604 152.95C284.935 152.841 285.284 153.005 285.412 153.333C285.523 153.661 285.357 154.007 285.027 154.135L284.016 154.499C283.685 154.609 283.336 154.445 283.207 154.117C283.097 153.789 283.281 153.424 283.593 153.315Z" fill="white"/>
<path d="M286.956 152.093L287.967 151.71C288.298 151.583 288.647 151.747 288.775 152.075C288.904 152.403 288.739 152.749 288.408 152.877L287.397 153.26C287.066 153.387 286.717 153.223 286.588 152.895C286.46 152.585 286.625 152.221 286.956 152.093Z" fill="white"/>
<path d="M290.301 150.835L291.293 150.453C291.624 150.325 291.991 150.489 292.12 150.799C292.249 151.127 292.083 151.492 291.771 151.619L290.76 152.002C290.429 152.13 290.062 151.966 289.933 151.656C289.804 151.328 289.97 150.963 290.301 150.835Z" fill="white"/>
<path d="M293.609 149.505L294.601 149.104C294.932 148.976 295.299 149.122 295.428 149.45C295.556 149.778 295.409 150.143 295.079 150.27L294.086 150.671C293.756 150.799 293.388 150.653 293.259 150.325C293.131 150.015 293.296 149.632 293.609 149.505Z" fill="white"/>
<path d="M296.898 148.138L297.872 147.719C298.203 147.573 298.57 147.719 298.717 148.047C298.864 148.375 298.717 148.74 298.386 148.885L297.394 149.305C297.063 149.45 296.696 149.305 296.549 148.977C296.438 148.648 296.585 148.266 296.898 148.138Z" fill="white"/>
<path d="M300.169 146.698L301.143 146.26C301.455 146.114 301.841 146.26 301.988 146.57C302.135 146.88 301.988 147.263 301.676 147.409L300.702 147.846C300.389 147.992 300.003 147.846 299.856 147.536C299.709 147.208 299.856 146.844 300.169 146.698Z" fill="white"/>
<path d="M303.403 145.203L304.377 144.747C304.689 144.602 305.075 144.729 305.222 145.039C305.369 145.349 305.241 145.732 304.928 145.878L303.954 146.351C303.642 146.497 303.256 146.37 303.091 146.06C302.925 145.75 303.091 145.349 303.403 145.203Z" fill="white"/>
<path d="M306.619 143.636L307.575 143.162C307.887 142.998 308.273 143.125 308.42 143.435C308.585 143.745 308.457 144.128 308.144 144.273L307.189 144.766C306.876 144.93 306.49 144.802 306.325 144.492C306.178 144.182 306.307 143.8 306.619 143.636Z" fill="white"/>
<path d="M309.798 142.013L310.736 141.521C311.048 141.357 311.415 141.466 311.581 141.776C311.746 142.086 311.636 142.451 311.324 142.615L310.368 143.125C310.056 143.289 309.688 143.18 309.523 142.87C309.357 142.56 309.486 142.177 309.798 142.013Z" fill="white"/>
<path d="M312.922 140.336L313.86 139.807C314.154 139.643 314.54 139.753 314.705 140.044C314.87 140.336 314.779 140.719 314.466 140.883L313.529 141.411C313.235 141.575 312.849 141.484 312.684 141.174C312.518 140.883 312.628 140.5 312.922 140.336Z" fill="white"/>
<path d="M316.01 138.55L316.929 138.003C317.223 137.82 317.609 137.912 317.774 138.203C317.958 138.495 317.866 138.859 317.572 139.042L316.653 139.607C316.359 139.789 315.973 139.698 315.808 139.406C315.624 139.115 315.716 138.732 316.01 138.55Z" fill="white"/>
<path d="M319.042 136.672L319.942 136.089C320.218 135.907 320.604 135.98 320.787 136.253C320.971 136.526 320.898 136.909 320.622 137.091L319.722 137.693C319.446 137.875 319.06 137.802 318.876 137.529C318.674 137.255 318.748 136.873 319.042 136.672Z" fill="white"/>
<path d="M321.982 134.685L322.846 134.066C323.121 133.865 323.489 133.938 323.691 134.193C323.893 134.467 323.82 134.831 323.562 135.032L322.68 135.67C322.405 135.87 322.037 135.797 321.835 135.542C321.633 135.269 321.706 134.904 321.982 134.685Z" fill="white"/>
<path d="M324.83 132.589L325.657 131.933C325.915 131.732 326.3 131.769 326.503 132.024C326.705 132.279 326.668 132.662 326.411 132.863L325.565 133.537C325.308 133.738 324.922 133.701 324.72 133.446C324.518 133.172 324.555 132.79 324.83 132.589Z" fill="white"/>
<path d="M327.568 130.329L328.359 129.618C328.598 129.399 328.983 129.417 329.204 129.672C329.425 129.909 329.406 130.292 329.149 130.511L328.34 131.222C328.101 131.441 327.715 131.422 327.495 131.167C327.293 130.93 327.311 130.566 327.568 130.329Z" fill="white"/>
<path d="M330.178 127.941L330.931 127.194C331.152 126.957 331.538 126.957 331.758 127.194C331.997 127.412 331.997 127.795 331.758 128.014L330.986 128.78C330.766 129.016 330.38 129.016 330.159 128.78C329.939 128.561 329.939 128.178 330.178 127.941Z" fill="white"/>
<path d="M332.622 125.389L333.32 124.587V124.569C333.541 124.332 333.908 124.295 334.147 124.514C334.386 124.733 334.423 125.097 334.202 125.334L333.486 126.154C333.265 126.391 332.898 126.428 332.659 126.209C332.42 126.009 332.402 125.644 332.622 125.389Z" fill="white"/>
<path d="M334.864 122.691L335.507 121.853V121.834C335.691 121.579 336.058 121.525 336.316 121.725C336.573 121.926 336.628 122.272 336.426 122.527L335.783 123.402C335.599 123.657 335.231 123.712 334.974 123.511C334.717 123.311 334.662 122.946 334.864 122.691Z" fill="white"/>
<path d="M336.904 119.811L337.474 118.918V118.9C337.639 118.626 337.988 118.553 338.264 118.718C338.539 118.882 338.613 119.228 338.448 119.501L337.878 120.413C337.713 120.686 337.363 120.759 337.088 120.595C336.812 120.449 336.739 120.103 336.904 119.811Z" fill="white"/>
<path d="M338.686 116.785L339.164 115.856V115.837C339.311 115.564 339.642 115.455 339.917 115.6C340.193 115.746 340.303 116.074 340.156 116.348L339.66 117.314C339.513 117.587 339.182 117.697 338.907 117.569C338.65 117.423 338.539 117.077 338.686 116.785Z" fill="white"/>
<path d="M340.193 113.614L340.598 112.629V112.611C340.708 112.338 341.02 112.192 341.314 112.319C341.59 112.429 341.719 112.739 341.627 113.012L341.222 114.015C341.112 114.288 340.8 114.434 340.506 114.324C340.23 114.215 340.083 113.905 340.193 113.614Z" fill="white"/>
<path d="M341.424 110.333L341.737 109.33V109.312C341.829 109.039 342.123 108.875 342.398 108.966C342.674 109.057 342.839 109.33 342.748 109.622L342.435 110.661C342.362 110.934 342.049 111.098 341.774 111.025C341.498 110.953 341.333 110.643 341.406 110.369L341.424 110.333Z" fill="white"/>
<path d="M342.325 106.942L342.527 105.903V105.885C342.582 105.611 342.858 105.429 343.134 105.484C343.409 105.538 343.593 105.793 343.538 106.067L343.336 107.124C343.281 107.398 343.005 107.58 342.729 107.543C342.454 107.489 342.27 107.215 342.307 106.942H342.325Z" fill="white"/>
<path d="M342.876 103.479L342.968 102.44V102.421C342.986 102.148 343.225 101.947 343.501 101.984C343.777 102.002 343.979 102.239 343.942 102.512L343.85 103.588C343.832 103.861 343.593 104.062 343.317 104.044C343.042 104.025 342.839 103.788 342.858 103.515L342.876 103.479Z" fill="white"/>
<path d="M343.042 99.9789L343.023 98.9217V98.9035C343.023 98.6483 343.225 98.4295 343.483 98.4113C343.74 98.4113 343.96 98.6118 343.979 98.867L344.016 99.9425C344.034 100.198 343.813 100.435 343.556 100.435C343.299 100.453 343.06 100.234 343.06 99.9789H343.042Z" fill="white"/>
<path d="M342.803 96.4972L342.638 95.4582V95.44C342.601 95.1848 342.766 94.966 343.023 94.9296C343.281 94.8931 343.501 95.0572 343.538 95.3124L343.703 96.3878C343.74 96.643 343.575 96.88 343.317 96.9164C343.06 96.9529 342.821 96.7889 342.785 96.5337L342.803 96.4972Z" fill="white"/>
<path d="M342.123 93.0521L341.829 92.0495V92.0313C341.755 91.7943 341.902 91.5574 342.141 91.4845C342.38 91.4115 342.619 91.5574 342.692 91.7761L343.005 92.8151C343.078 93.0521 342.931 93.3073 342.711 93.3619C342.472 93.4349 342.215 93.289 342.16 93.0703L342.123 93.0521Z" fill="white"/>
<path d="M340.984 89.753L340.542 88.8052V88.7869C340.451 88.5682 340.542 88.3312 340.763 88.2219C340.983 88.1307 341.222 88.2219 341.333 88.4224L341.792 89.4067C341.884 89.6255 341.792 89.8806 341.59 89.9718C341.369 90.0629 341.112 89.9718 341.02 89.7713L340.984 89.753Z" fill="white"/>
<path d="M339.366 86.654L338.778 85.7791L338.76 85.7608C338.631 85.5786 338.686 85.3234 338.87 85.1958C339.054 85.0682 339.311 85.1229 339.44 85.3051L340.046 86.1983C340.175 86.3806 340.12 86.6358 339.936 86.7634C339.752 86.891 339.495 86.8363 339.366 86.654Z" fill="white"/>
<path d="M337.29 83.8288L336.591 83.045L336.573 83.0268C336.426 82.8627 336.444 82.6258 336.61 82.4982C336.775 82.3706 336.996 82.3706 337.143 82.5346L337.878 83.3367C338.025 83.5007 338.006 83.7377 337.859 83.8835C337.694 84.0111 337.455 84.0111 337.29 83.8288C337.308 83.8471 337.308 83.8471 337.29 83.8288Z" fill="white"/>
<path d="M334.827 81.3314L334.019 80.657L334 80.6387C333.853 80.5111 333.835 80.2924 333.964 80.1466C334.092 80.0007 334.313 79.9825 334.46 80.1101L335.305 80.8028C335.452 80.9304 335.489 81.1491 335.36 81.3132C335.232 81.4408 334.993 81.459 334.827 81.3314C334.846 81.3314 334.846 81.3314 334.827 81.3314Z" fill="white"/>
<path d="M332.034 79.1805L331.134 78.6154H331.115C330.968 78.5243 330.913 78.3238 331.023 78.1779C331.115 78.0321 331.317 77.9774 331.464 78.0686L332.401 78.6336C332.567 78.7248 332.604 78.9253 332.512 79.0894C332.42 79.2352 332.199 79.2899 332.034 79.1805C332.052 79.1987 332.052 79.1987 332.034 79.1805Z" fill="white"/>
<path d="M328.947 77.4662L327.973 77.0473H327.954C327.807 76.9745 327.734 76.8106 327.807 76.6649C327.881 76.5192 328.046 76.4463 328.193 76.5192L329.204 76.938C329.351 77.0109 329.424 77.1748 329.369 77.3387C329.296 77.4662 329.13 77.539 328.947 77.4662C328.965 77.4662 328.965 77.4662 328.947 77.4662Z" fill="white"/>
<path d="M325.639 76.227L324.61 75.972H324.591C324.444 75.9356 324.353 75.7899 324.389 75.6442C324.426 75.4985 324.573 75.4257 324.72 75.4439L325.786 75.6988C325.933 75.7353 326.025 75.8809 325.988 76.0266C325.951 76.1723 325.804 76.2634 325.639 76.227C325.657 76.227 325.657 76.227 325.639 76.227Z" fill="white"/>
<path d="M322.166 75.5709L321.1 75.4981H321.082C320.953 75.4799 320.843 75.3706 320.861 75.2431C320.879 75.1156 320.99 75.0246 321.118 75.0246L322.203 75.0792C322.35 75.0792 322.441 75.2067 322.441 75.3342C322.441 75.4799 322.313 75.5709 322.184 75.5709C322.184 75.5709 322.184 75.5709 322.166 75.5709Z" fill="white"/>
<path d="M318.637 75.5342L317.59 75.6616H317.571C317.461 75.6799 317.369 75.5888 317.351 75.4795C317.333 75.3702 317.424 75.2792 317.516 75.261L318.601 75.1153C318.711 75.0971 318.821 75.1881 318.839 75.2974C318.839 75.4067 318.766 75.5159 318.637 75.5342C318.656 75.5159 318.656 75.5159 318.637 75.5342Z" fill="white"/>
<path d="M214.809 179.454L215.783 179.017C215.875 178.981 215.985 179.017 216.04 179.108C216.077 179.199 216.04 179.308 215.949 179.363L214.956 179.782C214.864 179.818 214.754 179.782 214.717 179.691C214.681 179.6 214.717 179.491 214.809 179.454Z" fill="white"/>
<path d="M218.099 178.014L219.091 177.595C219.201 177.54 219.33 177.595 219.385 177.704C219.44 177.813 219.385 177.941 219.275 177.996L218.283 178.396C218.172 178.433 218.044 178.378 218.007 178.287C217.933 178.178 217.989 178.05 218.099 178.014Z" fill="white"/>
<path d="M221.425 176.665L222.436 176.282C222.564 176.228 222.711 176.3 222.767 176.428C222.822 176.555 222.748 176.701 222.62 176.756L221.609 177.12C221.48 177.156 221.333 177.102 221.296 176.974C221.241 176.847 221.296 176.719 221.425 176.665Z" fill="white"/>
<path d="M224.806 175.425L225.817 175.079C225.964 175.025 226.129 175.097 226.184 175.261C226.24 175.407 226.166 175.571 226.001 175.626L224.99 175.953C224.843 176.008 224.696 175.917 224.641 175.771C224.586 175.626 224.659 175.48 224.806 175.425Z" fill="white"/>
<path d="M228.206 174.295L229.235 173.968C229.4 173.913 229.566 174.004 229.621 174.168C229.676 174.332 229.584 174.496 229.419 174.55L228.39 174.86C228.224 174.915 228.059 174.824 228.022 174.66C227.949 174.514 228.04 174.35 228.206 174.295Z" fill="white"/>
<path d="M231.642 173.238L232.672 172.947C232.855 172.892 233.039 173.002 233.076 173.165C233.131 173.348 233.021 173.53 232.855 173.566L231.826 173.858C231.661 173.912 231.477 173.803 231.422 173.639C231.367 173.475 231.459 173.293 231.642 173.238Z" fill="white"/>
<path d="M235.097 172.272L236.145 171.999C236.328 171.944 236.531 172.054 236.586 172.254C236.641 172.436 236.531 172.636 236.328 172.691L235.281 172.946C235.097 173.001 234.895 172.873 234.858 172.691C234.803 172.509 234.913 172.327 235.097 172.272Z" fill="white"/>
<path d="M238.57 171.397L239.618 171.142C239.82 171.087 240.022 171.215 240.077 171.415C240.132 171.616 240.004 171.816 239.802 171.871L238.754 172.107C238.552 172.162 238.35 172.034 238.313 171.834C238.258 171.634 238.368 171.433 238.57 171.397Z" fill="white"/>
<path d="M242.062 170.577L243.109 170.34C243.33 170.286 243.551 170.431 243.587 170.65C243.642 170.868 243.495 171.087 243.275 171.123L242.227 171.342C242.007 171.378 241.805 171.251 241.75 171.032C241.731 170.832 241.86 170.613 242.062 170.577Z" fill="white"/>
<path d="M245.572 169.811L246.619 169.593C246.858 169.538 247.079 169.702 247.134 169.921C247.189 170.157 247.024 170.376 246.803 170.43L245.756 170.631C245.535 170.667 245.296 170.522 245.26 170.303C245.204 170.066 245.352 169.848 245.572 169.811Z" fill="white"/>
<path d="M249.1 169.101L250.166 168.9C250.405 168.846 250.644 169.01 250.699 169.265C250.754 169.501 250.589 169.738 250.332 169.793L249.284 169.975C249.045 170.011 248.806 169.866 248.77 169.611C248.696 169.374 248.861 169.155 249.1 169.101Z" fill="white"/>
<path d="M252.629 168.444L253.694 168.262C253.952 168.207 254.209 168.39 254.246 168.645C254.301 168.9 254.117 169.155 253.86 169.192L252.794 169.374C252.537 169.41 252.298 169.246 252.243 168.991C252.206 168.736 252.371 168.499 252.629 168.444Z" fill="white"/>
<path d="M256.157 167.825L257.223 167.643C257.498 167.588 257.756 167.77 257.811 168.044C257.866 168.317 257.682 168.572 257.407 168.627L256.341 168.791C256.065 168.828 255.826 168.645 255.771 168.39C255.716 168.117 255.9 167.88 256.157 167.825Z" fill="white"/>
<path d="M259.704 167.241L260.769 167.077C261.045 167.041 261.321 167.223 261.357 167.497C261.394 167.77 261.21 168.043 260.935 168.08L259.869 168.244C259.593 168.28 259.336 168.098 259.281 167.825C259.244 167.551 259.428 167.296 259.704 167.241Z" fill="white"/>
<path d="M263.25 166.695L264.316 166.531C264.61 166.494 264.886 166.677 264.923 166.968C264.959 167.26 264.776 167.533 264.482 167.57L263.416 167.716C263.122 167.752 262.864 167.551 262.809 167.278C262.773 167.005 262.956 166.731 263.25 166.695Z" fill="white"/>
<path d="M266.797 166.148L267.863 165.984C268.157 165.947 268.432 166.148 268.488 166.439C268.524 166.731 268.322 167.004 268.028 167.059L266.962 167.205C266.668 167.241 266.393 167.041 266.356 166.749C266.301 166.476 266.503 166.202 266.797 166.148Z" fill="white"/>
<path d="M270.344 165.619L271.41 165.455C271.722 165.419 271.998 165.619 272.053 165.929C272.089 166.239 271.887 166.512 271.575 166.567L270.509 166.713C270.197 166.749 269.921 166.549 269.884 166.239C269.829 165.947 270.05 165.674 270.344 165.619Z" fill="white"/>
<path d="M273.89 165.091L274.956 164.927C275.269 164.872 275.563 165.091 275.618 165.401C275.673 165.711 275.452 166.002 275.14 166.057L274.074 166.203C273.762 166.239 273.468 166.039 273.431 165.729C273.376 165.437 273.578 165.145 273.89 165.091Z" fill="white"/>
<path d="M277.437 164.562L278.503 164.398C278.834 164.343 279.128 164.562 279.183 164.89C279.238 165.218 279.017 165.51 278.687 165.564L277.621 165.71C277.308 165.765 276.996 165.528 276.959 165.218C276.904 164.908 277.125 164.617 277.437 164.562Z" fill="white"/>
<path d="M280.984 164.033L282.05 163.869C282.38 163.814 282.693 164.033 282.748 164.361C282.803 164.689 282.583 164.999 282.252 165.054L281.186 165.218C280.855 165.273 280.543 165.036 280.506 164.708C280.432 164.38 280.653 164.07 280.984 164.033Z" fill="white"/>
<path d="M284.512 163.468L285.578 163.286C285.909 163.231 286.239 163.45 286.295 163.796C286.35 164.124 286.129 164.453 285.78 164.507L284.714 164.671C284.383 164.726 284.071 164.489 284.016 164.161C283.961 163.833 284.181 163.523 284.512 163.468Z" fill="white"/>
<path d="M288.04 162.867L289.106 162.684C289.455 162.63 289.786 162.848 289.841 163.195C289.896 163.541 289.676 163.869 289.327 163.924L288.261 164.106C287.912 164.161 287.599 163.942 287.526 163.596C287.471 163.249 287.71 162.921 288.04 162.867Z" fill="white"/>
<path d="M291.569 162.229L292.616 162.028C292.965 161.955 293.315 162.192 293.37 162.538C293.443 162.885 293.204 163.231 292.855 163.286L291.789 163.468C291.44 163.523 291.109 163.304 291.036 162.958C290.981 162.63 291.22 162.301 291.569 162.229Z" fill="white"/>
<path d="M295.079 161.554L296.126 161.335C296.494 161.263 296.843 161.5 296.916 161.846C296.99 162.21 296.751 162.557 296.402 162.63L295.336 162.83C294.987 162.903 294.638 162.666 294.564 162.32C294.491 161.973 294.73 161.627 295.079 161.554Z" fill="white"/>
<path d="M298.588 160.825L299.636 160.588C300.003 160.515 300.371 160.734 300.445 161.098C300.518 161.463 300.297 161.828 299.93 161.9L298.882 162.119C298.515 162.192 298.166 161.973 298.074 161.609C297.982 161.262 298.221 160.916 298.588 160.825Z" fill="white"/>
<path d="M302.062 160.041L303.109 159.786C303.477 159.695 303.863 159.932 303.955 160.296C304.046 160.661 303.808 161.044 303.44 161.135L302.393 161.372C302.025 161.463 301.658 161.226 301.566 160.861C301.455 160.497 301.694 160.132 302.062 160.041Z" fill="white"/>
<path d="M305.535 159.203L306.564 158.929C306.95 158.838 307.336 159.057 307.428 159.44C307.52 159.822 307.299 160.205 306.913 160.296L305.866 160.551C305.48 160.643 305.112 160.424 305.002 160.041C304.929 159.677 305.149 159.294 305.535 159.203Z" fill="white"/>
<path d="M308.971 158.291L310.001 158C310.386 157.89 310.791 158.109 310.901 158.492C311.011 158.875 310.791 159.276 310.405 159.385L309.357 159.677C308.971 159.786 308.586 159.549 308.475 159.185C308.365 158.784 308.586 158.401 308.971 158.291Z" fill="white"/>
<path d="M312.408 157.307L313.437 156.997C313.823 156.888 314.227 157.088 314.356 157.471C314.484 157.854 314.264 158.255 313.878 158.382L312.849 158.692C312.463 158.802 312.059 158.583 311.948 158.218C311.801 157.817 312.022 157.416 312.408 157.307Z" fill="white"/>
<path d="M315.808 156.231L316.818 155.903C317.204 155.776 317.627 155.976 317.755 156.359C317.884 156.742 317.682 157.161 317.296 157.289L316.267 157.617C315.881 157.744 315.458 157.544 315.348 157.161C315.201 156.778 315.422 156.359 315.808 156.231Z" fill="white"/>
<path d="M319.17 155.083L320.181 154.719C320.567 154.573 320.99 154.773 321.137 155.156C321.284 155.539 321.082 155.958 320.696 156.104L319.685 156.469C319.299 156.614 318.876 156.414 318.748 156.031C318.582 155.648 318.785 155.229 319.17 155.083Z" fill="white"/>
<path d="M322.515 153.844L323.507 153.443C323.893 153.297 324.316 153.479 324.481 153.862C324.628 154.245 324.445 154.664 324.059 154.828L323.048 155.229C322.662 155.375 322.239 155.193 322.092 154.81C321.945 154.427 322.129 153.99 322.515 153.844Z" fill="white"/>
<path d="M325.804 152.495L326.778 152.075C327.164 151.911 327.605 152.075 327.771 152.458C327.936 152.841 327.771 153.279 327.385 153.443L326.393 153.862C326.007 154.026 325.566 153.844 325.4 153.479C325.253 153.096 325.419 152.659 325.804 152.495Z" fill="white"/>
<path d="M329.057 151.037L330.013 150.581C330.38 150.399 330.84 150.563 331.023 150.927C331.207 151.292 331.042 151.748 330.674 151.93L329.7 152.386C329.333 152.568 328.873 152.404 328.689 152.039C328.506 151.675 328.671 151.219 329.057 151.037Z" fill="white"/>
<path d="M332.236 149.487L333.173 148.995C333.541 148.794 334 148.94 334.202 149.323C334.405 149.688 334.258 150.143 333.872 150.344L332.916 150.836C332.549 151.018 332.089 150.891 331.887 150.508C331.722 150.125 331.869 149.688 332.236 149.487Z" fill="white"/>
<path d="M335.379 147.81L336.297 147.281C336.665 147.081 337.124 147.208 337.345 147.555C337.547 147.919 337.418 148.375 337.069 148.594L336.132 149.122C335.764 149.323 335.305 149.195 335.084 148.831C334.864 148.466 335.011 148.029 335.379 147.81Z" fill="white"/>
<path d="M338.448 146.024L339.348 145.459C339.716 145.24 340.175 145.349 340.414 145.696C340.634 146.06 340.524 146.516 340.175 146.753L339.256 147.318C338.889 147.537 338.429 147.427 338.19 147.081C337.97 146.716 338.08 146.242 338.448 146.024Z" fill="white"/>
<path d="M341.424 144.109L342.306 143.508C342.656 143.271 343.133 143.362 343.391 143.708C343.63 144.055 343.538 144.529 343.189 144.784L342.288 145.385C341.939 145.622 341.461 145.531 341.222 145.185C340.965 144.82 341.057 144.346 341.424 144.109Z" fill="white"/>
<path d="M344.328 142.068L345.173 141.43C345.523 141.175 346 141.248 346.258 141.594C346.515 141.941 346.441 142.415 346.092 142.67L345.229 143.308C344.879 143.563 344.402 143.49 344.144 143.144C343.905 142.816 343.979 142.342 344.328 142.068Z" fill="white"/>
<path d="M347.139 139.917L347.966 139.243C348.297 138.97 348.793 139.024 349.069 139.352C349.345 139.68 349.289 140.173 348.959 140.446L348.113 141.12C347.783 141.394 347.286 141.339 347.011 141.011C346.735 140.683 346.79 140.191 347.139 139.917Z" fill="white"/>
<path d="M349.841 137.639L350.631 136.928C350.962 136.636 351.458 136.673 351.752 136.982C352.046 137.311 352.009 137.803 351.697 138.094L350.888 138.805C350.558 139.097 350.062 139.06 349.786 138.751C349.492 138.441 349.51 137.949 349.841 137.639Z" fill="white"/>
<path d="M352.432 135.251L353.185 134.504C353.498 134.194 353.994 134.194 354.306 134.504C354.619 134.814 354.619 135.306 354.306 135.616L353.535 136.381C353.222 136.691 352.726 136.691 352.414 136.381C352.12 136.053 352.12 135.561 352.432 135.251Z" fill="white"/>
<path d="M354.895 132.717L355.611 131.933V131.915C355.905 131.587 356.42 131.568 356.732 131.86C357.063 132.152 357.082 132.662 356.787 132.972L356.052 133.774C355.758 134.102 355.244 134.12 354.931 133.829C354.619 133.555 354.601 133.063 354.895 132.717Z" fill="white"/>
<path d="M357.228 130.074L357.89 129.254V129.236C358.166 128.889 358.68 128.835 359.011 129.108C359.36 129.381 359.415 129.892 359.139 130.22L358.46 131.058C358.184 131.405 357.669 131.459 357.339 131.186C356.989 130.931 356.934 130.42 357.228 130.074Z" fill="white"/>
<path d="M359.378 127.285L359.985 126.429V126.41C360.242 126.046 360.738 125.955 361.106 126.21C361.473 126.465 361.565 126.957 361.308 127.322L360.683 128.197C360.426 128.561 359.93 128.634 359.562 128.379C359.195 128.16 359.121 127.668 359.378 127.285Z" fill="white"/>
<path d="M361.345 124.387L361.896 123.494V123.476C362.135 123.093 362.631 122.983 363.017 123.202C363.403 123.439 363.513 123.931 363.293 124.314L362.723 125.244C362.484 125.627 361.988 125.736 361.602 125.499C361.235 125.28 361.106 124.77 361.345 124.387Z" fill="white"/>
<path d="M363.127 121.361L363.624 120.432V120.413C363.826 120.012 364.322 119.866 364.726 120.067C365.13 120.267 365.277 120.76 365.075 121.161L364.561 122.127C364.359 122.528 363.862 122.674 363.458 122.473C363.054 122.254 362.907 121.762 363.127 121.361Z" fill="white"/>
<path d="M364.671 118.226L365.094 117.259V117.241C365.277 116.822 365.755 116.64 366.178 116.822C366.6 117.004 366.784 117.478 366.6 117.897L366.159 118.9C365.976 119.319 365.498 119.502 365.075 119.319C364.671 119.119 364.487 118.645 364.671 118.226Z" fill="white"/>
<path d="M365.976 114.981L366.325 113.997V113.979C366.472 113.559 366.95 113.322 367.372 113.468C367.795 113.614 368.034 114.07 367.887 114.507C367.777 114.853 367.648 115.2 367.538 115.528C367.391 115.947 366.913 116.166 366.472 116.02C366.049 115.856 365.829 115.4 365.976 114.981Z" fill="white"/>
<path d="M367.005 111.645L367.262 110.625V110.606C367.372 110.169 367.813 109.914 368.254 110.023C368.695 110.133 368.953 110.57 368.842 111.007L368.585 112.065C368.475 112.502 368.034 112.776 367.593 112.666C367.152 112.557 366.876 112.119 366.986 111.682L367.005 111.645Z" fill="white"/>
<path d="M367.777 108.237L367.942 107.198V107.179C368.016 106.742 368.438 106.45 368.879 106.523C369.32 106.596 369.614 106.997 369.541 107.435L369.375 108.51C369.302 108.947 368.879 109.257 368.438 109.184C367.997 109.112 367.685 108.692 367.758 108.255L367.777 108.237Z" fill="white"/>
<path d="M368.236 104.774L368.309 103.735V103.716C368.346 103.279 368.732 102.951 369.173 102.987C369.614 103.024 369.945 103.406 369.908 103.844L369.835 104.938C369.798 105.375 369.412 105.703 368.971 105.685C368.53 105.648 368.199 105.266 368.217 104.828L368.236 104.774Z" fill="white"/>
<path d="M368.401 101.292V100.253V100.234C368.401 99.7968 368.751 99.4505 369.192 99.4505C369.633 99.4505 369.982 99.7968 369.982 100.216L370 101.31C370 101.747 369.651 102.112 369.228 102.112C368.787 102.112 368.42 101.765 368.42 101.346L368.401 101.292Z" fill="white"/>
<path d="M368.254 97.8104L368.144 96.7714V96.7532C368.107 96.3339 368.401 95.9693 368.824 95.9146C369.247 95.8782 369.614 96.1698 369.669 96.5891L369.798 97.6646C369.853 98.0838 369.541 98.4666 369.118 98.5213C368.695 98.576 368.309 98.2661 368.254 97.8469V97.8104Z" fill="white"/>
<path d="M367.776 94.3647L367.574 93.3439V93.3257C367.501 92.9246 367.758 92.5418 368.162 92.4507C368.567 92.3778 368.953 92.6148 369.045 93.0158L369.283 94.073C369.375 94.474 369.118 94.875 368.714 94.9662C368.309 95.0573 367.905 94.8021 367.813 94.4011L367.776 94.3647Z" fill="white"/>
<path d="M366.95 90.9929L366.637 89.9904V89.9721C366.509 89.5893 366.729 89.1883 367.115 89.079C367.483 88.9514 367.887 89.1701 368.016 89.5347L368.365 90.5737C368.493 90.9565 368.291 91.3575 367.905 91.4851C367.519 91.6127 367.115 91.4122 366.987 91.0294L366.95 90.9929Z" fill="white"/>
<path d="M365.755 87.7118L365.332 86.764L365.314 86.7457C365.167 86.3994 365.314 85.9984 365.663 85.8525C366.012 85.7067 366.398 85.8525 366.564 86.1807L367.041 87.165C367.207 87.5113 367.06 87.9306 366.711 88.0764C366.361 88.2405 365.939 88.0946 365.792 87.7483C365.792 87.7483 365.792 87.7483 365.792 87.7301L365.755 87.7118Z" fill="white"/>
<path d="M364.193 84.6131L363.642 83.7199L363.623 83.7017C363.44 83.3918 363.532 83.009 363.826 82.8085C364.12 82.6262 364.524 82.7173 364.708 83.009L365.314 83.9204C365.516 84.2303 365.424 84.6313 365.112 84.8318C364.8 85.0323 364.395 84.9412 364.193 84.6313V84.6131Z" fill="white"/>
<path d="M362.208 81.7692L361.547 80.9672L361.528 80.9489C361.308 80.6938 361.345 80.311 361.62 80.1104C361.878 79.9099 362.245 79.9282 362.466 80.1834L363.182 81.0036C363.403 81.2588 363.384 81.6598 363.127 81.8786C362.87 82.0973 362.466 82.0791 362.245 81.8239C362.245 81.8239 362.245 81.8239 362.227 81.8057L362.208 81.7692Z" fill="white"/>
<path d="M359.856 79.1808L359.084 78.4699L359.066 78.4517C358.846 78.2512 358.827 77.9049 359.029 77.6679C359.231 77.4492 359.581 77.4309 359.801 77.6314L360.628 78.3424C360.867 78.5429 360.885 78.9074 360.683 79.1444C360.481 79.3814 360.113 79.3996 359.875 79.1991C359.875 79.1991 359.875 79.1991 359.856 79.1991V79.1808Z" fill="white"/>
<path d="M357.173 76.957L356.31 76.3737L356.291 76.3555C356.071 76.1914 355.997 75.8815 356.162 75.6628C356.31 75.4441 356.622 75.3712 356.861 75.517L357.78 76.1003C358.019 76.2461 358.092 76.5742 357.927 76.8112C357.78 77.0482 357.449 77.1211 357.21 76.957C357.21 76.957 357.21 76.957 357.192 76.957H357.173Z" fill="white"/>
<path d="M354.178 75.1343L353.222 74.6786L353.204 74.6603C352.983 74.551 352.892 74.2958 353.002 74.077C353.112 73.8765 353.351 73.7854 353.571 73.8765L354.582 74.314C354.821 74.4234 354.913 74.6786 354.821 74.9155C354.711 75.1525 354.454 75.2436 354.215 75.1525H354.196L354.178 75.1343Z" fill="white"/>
<path d="M350.943 73.7843L349.933 73.4929H349.914C349.731 73.4383 349.62 73.2379 349.675 73.0558C349.731 72.8737 349.933 72.7644 350.117 72.8008L351.182 73.074C351.385 73.1287 351.513 73.329 351.458 73.5293C351.403 73.7296 351.201 73.8571 350.999 73.8025C350.999 73.8025 350.999 73.8025 350.98 73.8025L350.943 73.7843Z" fill="white"/>
<path d="M347.507 73.019L346.46 72.9098H346.441C346.276 72.8915 346.166 72.7459 346.184 72.6002C346.202 72.4545 346.331 72.327 346.496 72.3452L347.581 72.418C347.746 72.4363 347.893 72.5819 347.875 72.7459C347.856 72.9098 347.709 73.0554 347.544 73.0372C347.544 73.0372 347.544 73.0372 347.526 73.0372L347.507 73.019Z" fill="white"/>
<path d="M343.979 72.8916L342.913 72.9827H342.895C342.784 73.0009 342.692 72.9098 342.674 72.8006C342.656 72.6913 342.748 72.6002 342.839 72.582L343.924 72.4181C344.052 72.3999 344.163 72.491 344.181 72.6002C344.199 72.7277 344.107 72.837 343.997 72.8552C344.016 72.8916 343.997 72.8916 343.979 72.8916Z" fill="white"/>
<path d="M263.569 63.9731V251.21C263.569 254.143 260.914 256.544 257.67 256.544H154.122C150.878 256.544 148.223 254.143 148.223 251.21V63.9731C148.223 61.0401 150.878 58.6391 154.122 58.6391H257.67C260.914 58.6391 263.569 61.0401 263.569 63.9731Z" fill="#2B478B"/>
<path opacity="0.4" d="M222.799 66.1297H192.81C192.174 66.1297 191.649 65.6553 191.649 65.0802C191.649 64.5051 192.174 64.0306 192.81 64.0306H222.799C223.435 64.0306 223.96 64.5051 223.96 65.0802C223.976 65.6553 223.451 66.1297 222.799 66.1297Z" fill="#5E92DD"/>
<path opacity="0.4" d="M187.483 66.1299C186.847 66.1299 186.322 65.6555 186.322 65.0804C186.322 64.5053 186.847 64.0309 187.483 64.0309C188.119 64.0309 188.643 64.5053 188.643 65.0804C188.659 65.6555 188.135 66.1299 187.483 66.1299Z" fill="#5E92DD"/>
<path d="M214.848 245.617C214.848 247.486 214.022 249.183 212.67 250.405C211.303 251.656 209.41 252.418 207.327 252.418C203.177 252.418 199.806 249.37 199.806 245.617C199.806 243.202 201.205 241.088 203.304 239.88C204.465 239.205 205.848 238.817 207.343 238.817C211.477 238.817 214.848 241.865 214.848 245.617Z" fill="#2B478B"/>
<path d="M257.415 70.8311H155.124V235.467H257.415V70.8311Z" fill="#DCEAFF"/>
<path d="M212.67 250.405C211.303 251.656 209.41 252.418 207.327 252.418C203.177 252.418 199.806 249.37 199.806 245.617C199.806 243.202 201.205 241.088 203.304 239.88C204.036 242.77 206.214 247.616 212.67 250.405Z" fill="#233862"/>
<path d="M181.957 133.042L172.19 133.048L172.184 123.554L181.951 123.548L181.957 133.042ZM172.584 132.659L181.557 132.653L181.551 123.931L172.577 123.937L172.584 132.659Z" fill="#184655"/>
<path d="M177.025 131.486L173.994 126.424L175.083 125.805L176.841 128.745L179.721 122.044L180.882 122.516L177.025 131.486Z" fill="#F47458"/>
<path d="M181.957 163.013L172.19 163.019L172.184 153.526L181.951 153.52L181.957 163.013ZM172.584 162.631L181.557 162.624L181.551 153.902L172.577 153.909L172.584 162.631Z" fill="#184655"/>
<path d="M177.025 161.458L173.994 156.395L175.083 155.777L176.841 158.716L179.721 152.015L180.882 152.487L177.025 161.458Z" fill="#F47458"/>
<path d="M181.957 191.48L172.19 191.486L172.184 181.993L181.951 181.987L181.957 191.48ZM172.584 191.104L181.557 191.098L181.551 182.376L172.577 182.382L172.584 191.104Z" fill="#184655"/>
<path d="M180.277 184.626L179.434 183.793L177.043 186.12L174.639 183.799L173.802 184.632L176.193 186.941L173.808 189.256L174.645 190.089L177.043 187.762L179.44 190.089L180.277 189.256L177.886 186.941L180.277 184.626Z" fill="#F47458"/>
<path d="M231.25 124.211H188.901V127.463H231.25V124.211Z" fill="#9BC1F9"/>
<path d="M236.265 153.475H188.901V156.727H236.265V153.475Z" fill="#9BC1F9"/>
<path d="M216.205 182.197H188.901V185.448H216.205V182.197Z" fill="#9BC1F9"/>
<path d="M239.608 129.63H188.901V132.882H239.608V129.63Z" fill="#9BC1F9"/>
<path d="M233.479 96.5733H178.87V99.8248H233.479V96.5733Z" fill="#9BC1F9"/>
<path d="M242.952 101.993H169.398V105.244H242.952V101.993Z" fill="#9BC1F9"/>
<path d="M239.608 158.894H188.901V162.146H239.608V158.894Z" fill="#9BC1F9"/>
<path d="M239.608 187.616H188.901V190.868H239.608V187.616Z" fill="#9BC1F9"/>
<defs>
<linearGradient id="paint0_linear_1670_104646" x1="358.901" y1="122.674" x2="-0.9667" y2="157.021" gradientUnits="userSpaceOnUse">
<stop stop-color="#DAE3FE"/>
<stop offset="1" stop-color="#E9EFFD"/>
</linearGradient>
<linearGradient id="paint1_linear_1670_104646" x1="55.4102" y1="240.564" x2="29.3376" y2="256.334" gradientUnits="userSpaceOnUse">
<stop stop-color="#FF928E"/>
<stop offset="1" stop-color="#FEB3B1"/>
</linearGradient>
<linearGradient id="paint2_linear_1670_104646" x1="72.1874" y1="207.352" x2="64.3131" y2="235.274" gradientUnits="userSpaceOnUse">
<stop stop-color="#FF928E"/>
<stop offset="1" stop-color="#FEB3B1"/>
</linearGradient>
<linearGradient id="paint3_linear_1670_104646" x1="47.9509" y1="177.977" x2="57.4537" y2="177.977" gradientUnits="userSpaceOnUse">
<stop stop-color="#FF928E"/>
<stop offset="1" stop-color="#FEB3B1"/>
</linearGradient>
<linearGradient id="paint4_linear_1670_104646" x1="55.6918" y1="249.356" x2="63.9076" y2="263.373" gradientUnits="userSpaceOnUse">
<stop stop-color="#4042E2"/>
<stop offset="1" stop-color="#4F52FF"/>
</linearGradient>
<linearGradient id="paint5_linear_1670_104646" x1="48.9122" y1="244.923" x2="51.0852" y2="260.992" gradientUnits="userSpaceOnUse">
<stop stop-color="#4042E2"/>
<stop offset="1" stop-color="#4F52FF"/>
</linearGradient>
<linearGradient id="paint6_linear_1670_104646" x1="73.6266" y1="177.486" x2="52.3309" y2="227.708" gradientUnits="userSpaceOnUse">
<stop stop-color="#4042E2"/>
<stop offset="1" stop-color="#4F52FF"/>
</linearGradient>
<linearGradient id="paint7_linear_1670_104646" x1="61.0215" y1="147.183" x2="62.1064" y2="167.69" gradientUnits="userSpaceOnUse">
<stop stop-color="#FF928E"/>
<stop offset="1" stop-color="#FEB3B1"/>
</linearGradient>
<linearGradient id="paint8_linear_1670_104646" x1="70.4886" y1="160.799" x2="35.109" y2="206.557" gradientUnits="userSpaceOnUse">
<stop stop-color="#FE7062"/>
<stop offset="1" stop-color="#FF928E"/>
</linearGradient>
<linearGradient id="paint9_linear_1670_104646" x1="97.9273" y1="157.363" x2="39.7903" y2="190.94" gradientUnits="userSpaceOnUse">
<stop stop-color="#FF928E"/>
<stop offset="1" stop-color="#FEB3B1"/>
</linearGradient>
<linearGradient id="paint10_linear_1670_104646" x1="103.727" y1="167.405" x2="45.5904" y2="200.982" gradientUnits="userSpaceOnUse">
<stop stop-color="#FF928E"/>
<stop offset="1" stop-color="#FEB3B1"/>
</linearGradient>
<linearGradient id="paint11_linear_1670_104646" x1="59.7347" y1="130.458" x2="66.5225" y2="155.366" gradientUnits="userSpaceOnUse">
<stop stop-color="#FF928E"/>
<stop offset="1" stop-color="#FEB3B1"/>
</linearGradient>
<linearGradient id="paint12_linear_1670_104646" x1="26.5842" y1="158.78" x2="69.3177" y2="158.78" gradientUnits="userSpaceOnUse">
<stop stop-color="#09005D"/>
<stop offset="1" stop-color="#1A0F91"/>
</linearGradient>
<linearGradient id="paint13_linear_1670_104646" x1="266.309" y1="240.836" x2="282.139" y2="240.836" gradientUnits="userSpaceOnUse">
<stop stop-color="#4042E2"/>
<stop offset="1" stop-color="#4F52FF"/>
</linearGradient>
<linearGradient id="paint14_linear_1670_104646" x1="304.508" y1="242.632" x2="277.982" y2="216.717" gradientUnits="userSpaceOnUse">
<stop stop-color="#09005D"/>
<stop offset="1" stop-color="#1A0F91"/>
</linearGradient>
<linearGradient id="paint15_linear_1670_104646" x1="252.573" y1="268.813" x2="267.059" y2="268.813" gradientUnits="userSpaceOnUse">
<stop stop-color="#4042E2"/>
<stop offset="1" stop-color="#4F52FF"/>
</linearGradient>
<linearGradient id="paint16_linear_1670_104646" x1="273.61" y1="248.284" x2="273.61" y2="203.442" gradientUnits="userSpaceOnUse">
<stop stop-color="#4042E2"/>
<stop offset="1" stop-color="#4F52FF"/>
</linearGradient>
<linearGradient id="paint17_linear_1670_104646" x1="250.02" y1="232.749" x2="256.532" y2="269.588" gradientUnits="userSpaceOnUse">
<stop stop-color="#4042E2"/>
<stop offset="1" stop-color="#4F52FF"/>
</linearGradient>
<linearGradient id="paint18_linear_1670_104646" x1="313.807" y1="227.203" x2="271.29" y2="255.132" gradientUnits="userSpaceOnUse">
<stop stop-color="#09005D"/>
<stop offset="1" stop-color="#1A0F91"/>
</linearGradient>
<linearGradient id="paint19_linear_1670_104646" x1="331.654" y1="184.556" x2="310.537" y2="259.247" gradientUnits="userSpaceOnUse">
<stop stop-color="#FE7062"/>
<stop offset="1" stop-color="#FF928E"/>
</linearGradient>
<linearGradient id="paint20_linear_1670_104646" x1="325.478" y1="190.332" x2="325.478" y2="214.119" gradientUnits="userSpaceOnUse">
<stop stop-color="#FF928E"/>
<stop offset="1" stop-color="#FEB3B1"/>
</linearGradient>
<linearGradient id="paint21_linear_1670_104646" x1="336.059" y1="251.908" x2="332.26" y2="233.03" gradientUnits="userSpaceOnUse">
<stop stop-color="#FF928E"/>
<stop offset="1" stop-color="#FEB3B1"/>
</linearGradient>
<linearGradient id="paint22_linear_1670_104646" x1="324.652" y1="164.333" x2="320.678" y2="187.183" gradientUnits="userSpaceOnUse">
<stop stop-color="#09005D"/>
<stop offset="1" stop-color="#1A0F91"/>
</linearGradient>
<linearGradient id="paint23_linear_1670_104646" x1="341.226" y1="250.869" x2="337.427" y2="231.991" gradientUnits="userSpaceOnUse">
<stop stop-color="#FF928E"/>
<stop offset="1" stop-color="#FEB3B1"/>
</linearGradient>
<linearGradient id="paint24_linear_1670_104646" x1="312.749" y1="207.969" x2="314.831" y2="207.969" gradientUnits="userSpaceOnUse">
<stop stop-color="#E1473D"/>
<stop offset="1" stop-color="#E9605A"/>
</linearGradient>
<linearGradient id="paint25_linear_1670_104646" x1="321.922" y1="210.242" x2="328.319" y2="210.242" gradientUnits="userSpaceOnUse">
<stop stop-color="#E1473D"/>
<stop offset="1" stop-color="#E9605A"/>
</linearGradient>
<linearGradient id="paint26_linear_1670_104646" x1="327.454" y1="218.296" x2="338.917" y2="218.296" gradientUnits="userSpaceOnUse">
<stop stop-color="#E1473D"/>
<stop offset="1" stop-color="#E9605A"/>
</linearGradient>
<linearGradient id="paint27_linear_1670_104646" x1="287.948" y1="215.027" x2="315.102" y2="215.027" gradientUnits="userSpaceOnUse">
<stop stop-color="#FF928E"/>
<stop offset="1" stop-color="#FEB3B1"/>
</linearGradient>
<linearGradient id="paint28_linear_1670_104646" x1="284.113" y1="207.999" x2="295.712" y2="207.999" gradientUnits="userSpaceOnUse">
<stop stop-color="#09005D"/>
<stop offset="1" stop-color="#1A0F91"/>
</linearGradient>
<linearGradient id="paint29_linear_1670_104646" x1="313.616" y1="205.937" x2="305.987" y2="233.783" gradientUnits="userSpaceOnUse">
<stop stop-color="#FF928E"/>
<stop offset="1" stop-color="#FEB3B1"/>
</linearGradient>
</defs>
</svg>
