<svg width="80" height="81" viewBox="0 0 80 81" fill="none" xmlns="http://www.w3.org/2000/svg">
    <path d="M79.9814 8.06031C67.4456 2.82102 53.8049 0.10791 40 0.10791C26.1951 0.10791 12.5544 2.82102 0.0185652 8.06031C-0.469892 44.4316 8.57199 72.286 40 80.1079C71.4271 72.286 80.4699 44.4316 79.9814 8.06031Z" fill="#094B61" />
    <path d="M75.6064 27.4063C75.1317 32.5432 74.2921 37.6403 73.0937 42.6595C72.2394 46.2268 71.1147 49.725 69.7292 53.1238C67.4149 58.9711 63.9728 64.3132 59.5964 68.8504C57.019 71.464 54.0942 73.7159 50.9031 75.5436C48.8301 76.7297 46.665 77.7492 44.4283 78.5922C42.9689 79.1456 41.4491 79.6387 39.8687 80.0713C39.2201 79.8901 38.5921 79.7089 37.9641 79.5081C30.5959 77.3001 23.9767 73.1317 18.824 67.4547C8.97566 56.5276 4.6487 40.1774 3.62532 20.5973C3.4127 16.5525 3.33845 12.3736 3.40256 8.06058C6.71391 6.60902 10.1032 5.33942 13.5551 4.25765C15.6221 3.60465 17.6923 3.03117 19.766 2.53707C22.1062 1.97387 24.4374 1.511 26.7776 1.1494C30.2693 0.60166 33.7922 0.27233 37.3254 0.163368C38.1762 0.133167 39.0277 0.123413 39.8785 0.123413C44.2274 0.123492 48.5698 0.459913 52.866 1.12977C55.2778 1.50198 57.6894 1.98519 60.0995 2.5582C62.8455 3.22262 65.5915 4.02098 68.3375 4.95313C71.0123 5.85834 73.6805 6.89494 76.3519 8.06217C76.4453 14.5188 76.1965 20.9757 75.6064 27.4063Z" fill="url(#paint0_linear_502_790)" />
    <path d="M67.1261 24.2664C66.9326 29.4353 66.3398 34.5819 65.3531 39.6607C64.715 42.9319 63.8077 46.1456 62.6404 49.2695C61.2333 53.1239 59.2336 56.7387 56.7123 59.9852C55.4162 61.6324 53.9567 63.1459 52.3557 64.5031C51.076 65.5879 49.7067 66.5638 48.2622 67.4204C46.6573 68.3783 44.9727 69.1976 43.2267 69.8692C42.7507 70.0504 42.2642 70.2315 41.7677 70.4021C41.1496 70.6135 40.5108 70.8045 39.8622 70.9857C38.4288 70.5843 37.0212 70.0969 35.6471 69.5263C35.2821 69.3753 34.9179 69.2145 34.5628 69.0537C17.301 61.1361 12.1602 40.9749 12.4635 15.335C13.8313 14.7212 15.2098 14.1474 16.5735 13.6209C16.8472 13.5107 17.1308 13.4094 17.4045 13.309C19.1677 12.665 20.9203 12.0912 22.6835 11.5949C23.1766 11.4545 23.6863 11.3232 24.1827 11.1926C25.9969 10.7298 27.8199 10.3371 29.6341 10.0351C31.2452 9.76327 32.8564 9.56252 34.4675 9.4213C36.2611 9.25806 38.0546 9.17639 39.8375 9.17639H40.2222C43.4614 9.19642 46.6938 9.47235 49.8889 10.0016C51.9762 10.3439 54.0667 10.7934 56.1606 11.3501C58.7299 12.0363 61.2571 12.8694 63.7295 13.8454C64.905 14.2984 66.0699 14.7905 67.2354 15.3146C67.2963 18.3902 67.2584 21.3785 67.1261 24.2664Z" fill="#094B61" />
    <line x1="40" y1="24.4215" x2="40" y2="55.7941" stroke="white" stroke-width="12.549" />
    <line x1="55.6863" y1="40.1079" x2="24.3137" y2="40.1079" stroke="white" stroke-width="12.549" />
    <defs>
        <linearGradient id="paint0_linear_502_790" x1="39.8757" y1="0.123413" x2="39.8757" y2="80.0713" gradientUnits="userSpaceOnUse">
            <stop stop-color="#EAF4F8" />
            <stop offset="1" stop-color="#9ECEDE" />
        </linearGradient>
    </defs>
</svg>